<svg version="1.1" xmlns="http://www.w3.org/2000/svg" viewBox="0 0 520 290.25329074952447" width="520" height="290.25329074952447">
  <!-- svg-source:excalidraw -->
  
  <defs>
    <style class="style-fonts">
      @font-face {
        font-family: "Virgil";
        src: url("https://excalidraw.com/Virgil.woff2");
      }
      @font-face {
        font-family: "Cascadia";
        src: url("https://excalidraw.com/Cascadia.woff2");
      }
    </style>
  </defs>
  <rect x="0" y="0" width="520" height="290.25329074952447" fill="#ffffff"></rect><g stroke-linecap="round" transform="translate(10 140.25329074952444) rotate(0 10 10)"><path d="M20 10 C20 10.58, 19.95 11.17, 19.85 11.74 C19.75 12.31, 19.59 12.88, 19.4 13.42 C19.2 13.96, 18.95 14.5, 18.66 15 C18.37 15.5, 18.03 15.98, 17.66 16.43 C17.29 16.87, 16.87 17.29, 16.43 17.66 C15.98 18.03, 15.5 18.37, 15 18.66 C14.5 18.95, 13.96 19.2, 13.42 19.4 C12.88 19.59, 12.31 19.75, 11.74 19.85 C11.17 19.95, 10.58 20, 10 20 C9.42 20, 8.83 19.95, 8.26 19.85 C7.69 19.75, 7.12 19.59, 6.58 19.4 C6.04 19.2, 5.5 18.95, 5 18.66 C4.5 18.37, 4.02 18.03, 3.57 17.66 C3.13 17.29, 2.71 16.87, 2.34 16.43 C1.97 15.98, 1.63 15.5, 1.34 15 C1.05 14.5, 0.8 13.96, 0.6 13.42 C0.41 12.88, 0.25 12.31, 0.15 11.74 C0.05 11.17, 0 10.58, 0 10 C0 9.42, 0.05 8.83, 0.15 8.26 C0.25 7.69, 0.41 7.12, 0.6 6.58 C0.8 6.04, 1.05 5.5, 1.34 5 C1.63 4.5, 1.97 4.02, 2.34 3.57 C2.71 3.13, 3.13 2.71, 3.57 2.34 C4.02 1.97, 4.5 1.63, 5 1.34 C5.5 1.05, 6.04 0.8, 6.58 0.6 C7.12 0.41, 7.69 0.25, 8.26 0.15 C8.83 0.05, 9.42 0, 10 0 C10.58 0, 11.17 0.05, 11.74 0.15 C12.31 0.25, 12.88 0.41, 13.42 0.6 C13.96 0.8, 14.5 1.05, 15 1.34 C15.5 1.63, 15.98 1.97, 16.43 2.34 C16.87 2.71, 17.29 3.13, 17.66 3.57 C18.03 4.02, 18.37 4.5, 18.66 5 C18.95 5.5, 19.2 6.04, 19.4 6.58 C19.59 7.12, 19.75 7.69, 19.85 8.26 C19.95 8.83, 19.97 9.71, 20 10 C20.03 10.29, 20.03 9.71, 20 10" stroke="#000000" stroke-width="2" fill="none"></path></g><g transform="translate(10 100.25329074952444) rotate(0 8.5 17)"><text x="0" y="27" font-family="Cascadia, Segoe UI Emoji" font-size="28px" fill="#000000" text-anchor="start" style="white-space: pre;" direction="ltr">s</text></g><g stroke-linecap="round" transform="translate(250 20.25329074952444) rotate(0 10 10)"><path d="M20 10 C20 10.58, 19.95 11.17, 19.85 11.74 C19.75 12.31, 19.59 12.88, 19.4 13.42 C19.2 13.96, 18.95 14.5, 18.66 15 C18.37 15.5, 18.03 15.98, 17.66 16.43 C17.29 16.87, 16.87 17.29, 16.43 17.66 C15.98 18.03, 15.5 18.37, 15 18.66 C14.5 18.95, 13.96 19.2, 13.42 19.4 C12.88 19.59, 12.31 19.75, 11.74 19.85 C11.17 19.95, 10.58 20, 10 20 C9.42 20, 8.83 19.95, 8.26 19.85 C7.69 19.75, 7.12 19.59, 6.58 19.4 C6.04 19.2, 5.5 18.95, 5 18.66 C4.5 18.37, 4.02 18.03, 3.57 17.66 C3.13 17.29, 2.71 16.87, 2.34 16.43 C1.97 15.98, 1.63 15.5, 1.34 15 C1.05 14.5, 0.8 13.96, 0.6 13.42 C0.41 12.88, 0.25 12.31, 0.15 11.74 C0.05 11.17, 0 10.58, 0 10 C0 9.42, 0.05 8.83, 0.15 8.26 C0.25 7.69, 0.41 7.12, 0.6 6.58 C0.8 6.04, 1.05 5.5, 1.34 5 C1.63 4.5, 1.97 4.02, 2.34 3.57 C2.71 3.13, 3.13 2.71, 3.57 2.34 C4.02 1.97, 4.5 1.63, 5 1.34 C5.5 1.05, 6.04 0.8, 6.58 0.6 C7.12 0.41, 7.69 0.25, 8.26 0.15 C8.83 0.05, 9.42 0, 10 0 C10.58 0, 11.17 0.05, 11.74 0.15 C12.31 0.25, 12.88 0.41, 13.42 0.6 C13.96 0.8, 14.5 1.05, 15 1.34 C15.5 1.63, 15.98 1.97, 16.43 2.34 C16.87 2.71, 17.29 3.13, 17.66 3.57 C18.03 4.02, 18.37 4.5, 18.66 5 C18.95 5.5, 19.2 6.04, 19.4 6.58 C19.59 7.12, 19.75 7.69, 19.85 8.26 C19.95 8.83, 19.97 9.71, 20 10 C20.03 10.29, 20.03 9.71, 20 10" stroke="#000000" stroke-width="2" fill="none"></path></g><g stroke-linecap="round" transform="translate(250 260.25329074952447) rotate(0 10 10)"><path d="M20 10 C20 10.58, 19.95 11.17, 19.85 11.74 C19.75 12.31, 19.59 12.88, 19.4 13.42 C19.2 13.96, 18.95 14.5, 18.66 15 C18.37 15.5, 18.03 15.98, 17.66 16.43 C17.29 16.87, 16.87 17.29, 16.43 17.66 C15.98 18.03, 15.5 18.37, 15 18.66 C14.5 18.95, 13.96 19.2, 13.42 19.4 C12.88 19.59, 12.31 19.75, 11.74 19.85 C11.17 19.95, 10.58 20, 10 20 C9.42 20, 8.83 19.95, 8.26 19.85 C7.69 19.75, 7.12 19.59, 6.58 19.4 C6.04 19.2, 5.5 18.95, 5 18.66 C4.5 18.37, 4.02 18.03, 3.57 17.66 C3.13 17.29, 2.71 16.87, 2.34 16.43 C1.97 15.98, 1.63 15.5, 1.34 15 C1.05 14.5, 0.8 13.96, 0.6 13.42 C0.41 12.88, 0.25 12.31, 0.15 11.74 C0.05 11.17, 0 10.58, 0 10 C0 9.42, 0.05 8.83, 0.15 8.26 C0.25 7.69, 0.41 7.12, 0.6 6.58 C0.8 6.04, 1.05 5.5, 1.34 5 C1.63 4.5, 1.97 4.02, 2.34 3.57 C2.71 3.13, 3.13 2.71, 3.57 2.34 C4.02 1.97, 4.5 1.63, 5 1.34 C5.5 1.05, 6.04 0.8, 6.58 0.6 C7.12 0.41, 7.69 0.25, 8.26 0.15 C8.83 0.05, 9.42 0, 10 0 C10.58 0, 11.17 0.05, 11.74 0.15 C12.31 0.25, 12.88 0.41, 13.42 0.6 C13.96 0.8, 14.5 1.05, 15 1.34 C15.5 1.63, 15.98 1.97, 16.43 2.34 C16.87 2.71, 17.29 3.13, 17.66 3.57 C18.03 4.02, 18.37 4.5, 18.66 5 C18.95 5.5, 19.2 6.04, 19.4 6.58 C19.59 7.12, 19.75 7.69, 19.85 8.26 C19.95 8.83, 19.97 9.71, 20 10 C20.03 10.29, 20.03 9.71, 20 10" stroke="#000000" stroke-width="2" fill="none"></path></g><g stroke-linecap="round" transform="translate(490 140.25329074952444) rotate(0 10 10)"><path d="M20 10 C20 10.58, 19.95 11.17, 19.85 11.74 C19.75 12.31, 19.59 12.88, 19.4 13.42 C19.2 13.96, 18.95 14.5, 18.66 15 C18.37 15.5, 18.03 15.98, 17.66 16.43 C17.29 16.87, 16.87 17.29, 16.43 17.66 C15.98 18.03, 15.5 18.37, 15 18.66 C14.5 18.95, 13.96 19.2, 13.42 19.4 C12.88 19.59, 12.31 19.75, 11.74 19.85 C11.17 19.95, 10.58 20, 10 20 C9.42 20, 8.83 19.95, 8.26 19.85 C7.69 19.75, 7.12 19.59, 6.58 19.4 C6.04 19.2, 5.5 18.95, 5 18.66 C4.5 18.37, 4.02 18.03, 3.57 17.66 C3.13 17.29, 2.71 16.87, 2.34 16.43 C1.97 15.98, 1.63 15.5, 1.34 15 C1.05 14.5, 0.8 13.96, 0.6 13.42 C0.41 12.88, 0.25 12.31, 0.15 11.74 C0.05 11.17, 0 10.58, 0 10 C0 9.42, 0.05 8.83, 0.15 8.26 C0.25 7.69, 0.41 7.12, 0.6 6.58 C0.8 6.04, 1.05 5.5, 1.34 5 C1.63 4.5, 1.97 4.02, 2.34 3.57 C2.71 3.13, 3.13 2.71, 3.57 2.34 C4.02 1.97, 4.5 1.63, 5 1.34 C5.5 1.05, 6.04 0.8, 6.58 0.6 C7.12 0.41, 7.69 0.25, 8.26 0.15 C8.83 0.05, 9.42 0, 10 0 C10.58 0, 11.17 0.05, 11.74 0.15 C12.31 0.25, 12.88 0.41, 13.42 0.6 C13.96 0.8, 14.5 1.05, 15 1.34 C15.5 1.63, 15.98 1.97, 16.43 2.34 C16.87 2.71, 17.29 3.13, 17.66 3.57 C18.03 4.02, 18.37 4.5, 18.66 5 C18.95 5.5, 19.2 6.04, 19.4 6.58 C19.59 7.12, 19.75 7.69, 19.85 8.26 C19.95 8.83, 19.97 9.71, 20 10 C20.03 10.29, 20.03 9.71, 20 10" stroke="#000000" stroke-width="2" fill="none"></path></g><g stroke-linecap="round"><g transform="translate(268.22845108685283 258.7514390415919) rotate(0 111.7715489131424 -48.49814829207088)"><path d="M0 0 C37.26 -16.17, 186.29 -80.83, 223.54 -97 M0 0 C37.26 -16.17, 186.29 -80.83, 223.54 -97" stroke="#000000" stroke-width="2" fill="none"></path></g><g transform="translate(268.22845108685283 258.7514390415919) rotate(0 111.7715489131424 -48.49814829207088)"><path d="M201.77 -76.36 C206.33 -80.69, 210.9 -85.02, 223.54 -97 M201.77 -76.36 C208.26 -82.52, 214.76 -88.68, 223.54 -97" stroke="#000000" stroke-width="2" fill="none"></path></g><g transform="translate(268.22845108685283 258.7514390415919) rotate(0 111.7715489131424 -48.49814829207088)"><path d="M193.6 -95.19 C199.88 -95.57, 206.16 -95.95, 223.54 -97 M193.6 -95.19 C202.53 -95.73, 211.47 -96.27, 223.54 -97" stroke="#000000" stroke-width="2" fill="none"></path></g></g><mask></mask><g stroke-linecap="round"><g transform="translate(28.228451086862435 161.7551424574501) rotate(0 111.77154891313782 48.49814829207418)"><path d="M0 0 C37.26 16.17, 186.29 80.83, 223.54 97 M0 0 C37.26 16.17, 186.29 80.83, 223.54 97" stroke="#000000" stroke-width="2" fill="none"></path></g><g transform="translate(28.228451086862435 161.7551424574501) rotate(0 111.77154891313782 48.49814829207418)"><path d="M193.6 95.19 C202.77 95.74, 211.95 96.3, 223.54 97 M193.6 95.19 C200.25 95.59, 206.9 95.99, 223.54 97" stroke="#000000" stroke-width="2" fill="none"></path></g><g transform="translate(28.228451086862435 161.7551424574501) rotate(0 111.77154891313782 48.49814829207418)"><path d="M201.77 76.36 C208.44 82.69, 215.11 89.01, 223.54 97 M201.77 76.36 C206.6 80.94, 211.44 85.53, 223.54 97" stroke="#000000" stroke-width="2" fill="none"></path></g></g><mask></mask><g stroke-linecap="round"><g transform="translate(268.22845108685283 41.755142457457026) rotate(0 111.7715489131424 48.49814829207088)"><path d="M0 0 C37.26 16.17, 186.29 80.83, 223.54 97 M0 0 C37.26 16.17, 186.29 80.83, 223.54 97" stroke="#000000" stroke-width="2" fill="none"></path></g><g transform="translate(268.22845108685283 41.755142457457026) rotate(0 111.7715489131424 48.49814829207088)"><path d="M193.6 95.19 C200.28 95.59, 206.96 95.99, 223.54 97 M193.6 95.19 C201.75 95.68, 209.91 96.17, 223.54 97" stroke="#000000" stroke-width="2" fill="none"></path></g><g transform="translate(268.22845108685283 41.755142457457026) rotate(0 111.7715489131424 48.49814829207088)"><path d="M201.77 76.36 C206.62 80.96, 211.48 85.57, 223.54 97 M201.77 76.36 C207.7 81.98, 213.63 87.6, 223.54 97" stroke="#000000" stroke-width="2" fill="none"></path></g></g><mask></mask><g stroke-linecap="round"><g transform="translate(30 140.25329074952444) rotate(0 110 -50)"><path d="M0 0 C36.67 -16.67, 183.33 -83.33, 220 -100 M0 0 C36.67 -16.67, 183.33 -83.33, 220 -100" stroke="#000000" stroke-width="2" fill="none"></path></g><g transform="translate(30 140.25329074952444) rotate(0 110 -50)"><path d="M198.58 -78.99 C206.29 -86.56, 214 -94.12, 220 -100 M198.58 -78.99 C204.68 -84.98, 210.79 -90.96, 220 -100" stroke="#000000" stroke-width="2" fill="none"></path></g><g transform="translate(30 140.25329074952444) rotate(0 110 -50)"><path d="M190.09 -97.68 C200.86 -98.51, 211.63 -99.35, 220 -100 M190.09 -97.68 C198.61 -98.34, 207.13 -99, 220 -100" stroke="#000000" stroke-width="2" fill="none"></path></g></g><mask></mask><g transform="translate(490 100.25329074952444) rotate(0 8.5 34.5)"><text x="0" y="27.5" font-family="Cascadia, Segoe UI Emoji" font-size="28px" fill="#000000" text-anchor="start" style="white-space: pre;" direction="ltr">t</text><text x="0" y="62" font-family="Cascadia, Segoe UI Emoji" font-size="28px" fill="#000000" text-anchor="start" style="white-space: pre;" direction="ltr"></text></g><g stroke-linecap="round"><g transform="translate(250 40.25329074952444) rotate(0 0 110)"><path d="M0 0 C0 36.67, 0 183.33, 0 220 M0 0 C0 36.67, 0 183.33, 0 220" stroke="#000000" stroke-width="2" fill="none"></path></g><g transform="translate(250 40.25329074952444) rotate(0 0 110)"><path d="M-10.26 191.81 C-6.35 202.56, -2.43 213.32, 0 220 M-10.26 191.81 C-7.02 200.7, -3.79 209.59, 0 220" stroke="#000000" stroke-width="2" fill="none"></path></g><g transform="translate(250 40.25329074952444) rotate(0 0 110)"><path d="M10.26 191.81 C6.35 202.56, 2.43 213.32, 0 220 M10.26 191.81 C7.02 200.7, 3.79 209.59, 0 220" stroke="#000000" stroke-width="2" fill="none"></path></g></g><mask></mask><g transform="translate(82.02469128686425 66.21550537394614) rotate(0 33.5 10)"><text x="0" y="16" font-family="Cascadia, Segoe UI Emoji" font-size="16px" fill="#364fc7" text-anchor="start" style="white-space: pre;" direction="ltr">c=2,f=2</text></g><g transform="translate(90 220.25329074952444) rotate(0 33.5 10)"><text x="0" y="16" font-family="Cascadia, Segoe UI Emoji" font-size="16px" fill="#000000" text-anchor="start" style="white-space: pre;" direction="ltr">c=2,f=0</text></g><g transform="translate(370 60.25329074952444) rotate(0 33.5 10)"><text x="0" y="16" font-family="Cascadia, Segoe UI Emoji" font-size="16px" fill="#000000" text-anchor="start" style="white-space: pre;" direction="ltr">c=2,f=0</text></g><g transform="translate(370 220.25329074952444) rotate(0 33.5 10)"><text x="0" y="16" font-family="Cascadia, Segoe UI Emoji" font-size="16px" fill="#364fc7" text-anchor="start" style="white-space: pre;" direction="ltr">c=2,f=2</text></g><g transform="translate(270 140.25329074952444) rotate(0 33.5 10)"><text x="0" y="16" font-family="Cascadia, Segoe UI Emoji" font-size="16px" fill="#364fc7" text-anchor="start" style="white-space: pre;" direction="ltr">c=2,f=2</text></g><g stroke-linecap="round"><g transform="translate(30 120.25329074952444) rotate(0 230 30)"><path d="M0 0 C36.67 -13.33, 176.67 -103.33, 220 -80 C263.33 -56.67, 220 116.67, 260 140 C300 163.33, 426.67 73.33, 460 60 M0 0 C36.67 -13.33, 176.67 -103.33, 220 -80 C263.33 -56.67, 220 116.67, 260 140 C300 163.33, 426.67 73.33, 460 60" stroke="#ff0000" stroke-width="2" fill="none"></path></g><g transform="translate(30 120.25329074952444) rotate(0 230 30)"><path d="M440.2 82.54 C445.24 76.81, 450.27 71.07, 460 60 M440.2 82.54 C448.08 73.57, 455.96 64.6, 460 60" stroke="#ff0000" stroke-width="2" fill="none"></path></g><g transform="translate(30 120.25329074952444) rotate(0 230 30)"><path d="M430.35 64.54 C437.89 63.39, 445.43 62.23, 460 60 M430.35 64.54 C442.15 62.73, 453.95 60.93, 460 60" stroke="#ff0000" stroke-width="2" fill="none"></path></g></g><mask></mask><g transform="translate(199.00266829323186 10) rotate(0 14.5 10)"><text x="0" y="16" font-family="Cascadia, Segoe UI Emoji" font-size="16px" fill="#ff0000" text-anchor="start" style="white-space: pre;" direction="ltr">f=2</text></g></svg>