<svg version="1.1" xmlns="http://www.w3.org/2000/svg" viewBox="0 0 500 140" width="500" height="140">
  <!-- svg-source:excalidraw -->
  
  <defs>
    <style class="style-fonts">
      @font-face {
        font-family: "Virgil";
        src: url("https://excalidraw.com/Virgil.woff2");
      }
      @font-face {
        font-family: "Cascadia";
        src: url("https://excalidraw.com/Cascadia.woff2");
      }
    </style>
  </defs>
  <rect x="0" y="0" width="500" height="140" fill="#ffffff"></rect><g stroke-linecap="round"><g transform="translate(10 70) rotate(0 80 0)"><path d="M0 0 C39.95 0, 79.91 0, 160 0 M0 0 C60.74 0, 121.48 0, 160 0" stroke="#364fc7" stroke-width="2" fill="none"></path></g><g transform="translate(10 70) rotate(0 80 0)"><path d="M131.81 10.26 C138.85 7.7, 145.89 5.14, 160 0 M131.81 10.26 C142.51 6.37, 153.21 2.47, 160 0" stroke="#364fc7" stroke-width="2" fill="none"></path></g><g transform="translate(10 70) rotate(0 80 0)"><path d="M131.81 -10.26 C138.85 -7.7, 145.89 -5.14, 160 0 M131.81 -10.26 C142.51 -6.37, 153.21 -2.47, 160 0" stroke="#364fc7" stroke-width="2" fill="none"></path></g></g><mask></mask><g stroke-linecap="round"><g transform="translate(70 130) rotate(0 20 -60)"><path d="M0 0 C14.47 -43.42, 28.94 -86.83, 40 -120 M0 0 C14.26 -42.77, 28.52 -85.55, 40 -120" stroke="#c92a2a" stroke-width="2" fill="none"></path></g><g transform="translate(70 130) rotate(0 20 -60)"><path d="M40.82 -90.01 C40.52 -100.86, 40.23 -111.71, 40 -120 M40.82 -90.01 C40.53 -100.7, 40.24 -111.39, 40 -120" stroke="#c92a2a" stroke-width="2" fill="none"></path></g><g transform="translate(70 130) rotate(0 20 -60)"><path d="M21.35 -96.5 C28.1 -105, 34.85 -113.5, 40 -120 M21.35 -96.5 C28 -104.88, 34.65 -113.25, 40 -120" stroke="#c92a2a" stroke-width="2" fill="none"></path></g></g><mask></mask><g stroke-linecap="round"><g transform="translate(330 70) rotate(0 50 -30)"><path d="M0 0 C16.87 0, 33.74 0, 80 0 M0 0 C24.57 0, 49.14 0, 80 0 M80 0 C87.74 -23.22, 95.48 -46.43, 100 -60 M80 0 C85.75 -17.24, 91.49 -34.48, 100 -60" stroke="#364fc7" stroke-width="2" fill="none"></path></g><g transform="translate(330 70) rotate(0 50 -30)"><path d="M100.82 -30.01 C100.65 -36.33, 100.47 -42.66, 100 -60 M100.82 -30.01 C100.57 -39.22, 100.32 -48.43, 100 -60" stroke="#364fc7" stroke-width="2" fill="none"></path></g><g transform="translate(330 70) rotate(0 50 -30)"><path d="M81.35 -36.5 C85.28 -41.46, 89.22 -46.41, 100 -60 M81.35 -36.5 C87.08 -43.72, 92.81 -50.93, 100 -60" stroke="#364fc7" stroke-width="2" fill="none"></path></g></g><mask></mask><g stroke-linecap="round"><g transform="translate(390 130) rotate(0 50 -30)"><path d="M0 0 C6.8 -20.39, 13.59 -40.78, 20 -60 M0 0 C6.29 -18.86, 12.57 -37.72, 20 -60 M20 -60 C51.25 -60, 82.5 -60, 100 -60 M20 -60 C49.81 -60, 79.61 -60, 100 -60" stroke="#c92a2a" stroke-width="2" fill="none"></path></g><g transform="translate(390 130) rotate(0 50 -30)"><path d="M71.81 -49.74 C81.39 -53.23, 90.97 -56.71, 100 -60 M71.81 -49.74 C80.67 -52.96, 89.53 -56.19, 100 -60" stroke="#c92a2a" stroke-width="2" fill="none"></path></g><g transform="translate(390 130) rotate(0 50 -30)"><path d="M71.81 -70.26 C81.39 -66.77, 90.97 -63.29, 100 -60 M71.81 -70.26 C80.67 -67.04, 89.53 -63.81, 100 -60" stroke="#c92a2a" stroke-width="2" fill="none"></path></g></g><mask></mask><g stroke-linecap="round"><g transform="translate(210.94704015832394 71.57503846846521) rotate(0 30.237408065702766 -0.6016400512307882)"><path d="M0.36 0.37 C18.49 -1.18, 36.52 0.96, 61.42 -1.58 M-0.95 -0.58 C16.84 -0.43, 31.33 -0.57, 59.91 -0.59" stroke="#2b8a3e" stroke-width="4" fill="none"></path></g><g transform="translate(210.94704015832394 71.57503846846521) rotate(0 30.237408065702766 -0.6016400512307882)"><path d="M32.1 10.09 C40.97 5.78, 49.8 4.93, 61.33 -2.16 M30.79 9.14 C40.14 6.74, 46.16 3.86, 59.82 -1.17" stroke="#2b8a3e" stroke-width="4" fill="none"></path></g><g transform="translate(210.94704015832394 71.57503846846521) rotate(0 30.237408065702766 -0.6016400512307882)"><path d="M32.06 -10.43 C41.06 -8.81, 49.9 -3.73, 61.33 -2.16 M30.75 -11.38 C40.06 -8.32, 46.09 -5.75, 59.82 -1.17" stroke="#2b8a3e" stroke-width="4" fill="none"></path></g></g><mask></mask></svg>