<svg version="1.1" xmlns="http://www.w3.org/2000/svg" viewBox="0 0 420 280" width="420" height="280">
  <!-- svg-source:excalidraw -->
  
  <defs>
    <style class="style-fonts">
      @font-face {
        font-family: "Virgil";
        src: url("https://excalidraw.com/Virgil.woff2");
      }
      @font-face {
        font-family: "Cascadia";
        src: url("https://excalidraw.com/Cascadia.woff2");
      }
    </style>
  </defs>
  <rect x="0" y="0" width="420" height="280" fill="#ffffff"></rect><g stroke-linecap="round" transform="translate(50 210) rotate(0 20 20)"><path d="M40 20 C40 21.16, 39.9 22.33, 39.7 23.47 C39.5 24.61, 39.19 25.75, 38.79 26.84 C38.4 27.93, 37.9 29, 37.32 30 C36.74 31, 36.07 31.97, 35.32 32.86 C34.58 33.74, 33.74 34.58, 32.86 35.32 C31.97 36.07, 31 36.74, 30 37.32 C29 37.9, 27.93 38.4, 26.84 38.79 C25.75 39.19, 24.61 39.5, 23.47 39.7 C22.33 39.9, 21.16 40, 20 40 C18.84 40, 17.67 39.9, 16.53 39.7 C15.39 39.5, 14.25 39.19, 13.16 38.79 C12.07 38.4, 11 37.9, 10 37.32 C9 36.74, 8.03 36.07, 7.14 35.32 C6.26 34.58, 5.42 33.74, 4.68 32.86 C3.93 31.97, 3.26 31, 2.68 30 C2.1 29, 1.6 27.93, 1.21 26.84 C0.81 25.75, 0.5 24.61, 0.3 23.47 C0.1 22.33, 0 21.16, 0 20 C0 18.84, 0.1 17.67, 0.3 16.53 C0.5 15.39, 0.81 14.25, 1.21 13.16 C1.6 12.07, 2.1 11, 2.68 10 C3.26 9, 3.93 8.03, 4.68 7.14 C5.42 6.26, 6.26 5.42, 7.14 4.68 C8.03 3.93, 9 3.26, 10 2.68 C11 2.1, 12.07 1.6, 13.16 1.21 C14.25 0.81, 15.39 0.5, 16.53 0.3 C17.67 0.1, 18.84 0, 20 0 C21.16 0, 22.33 0.1, 23.47 0.3 C24.61 0.5, 25.75 0.81, 26.84 1.21 C27.93 1.6, 29 2.1, 30 2.68 C31 3.26, 31.97 3.93, 32.86 4.68 C33.74 5.42, 34.58 6.26, 35.32 7.14 C36.07 8.03, 36.74 9, 37.32 10 C37.9 11, 38.4 12.07, 38.79 13.16 C39.19 14.25, 39.5 15.39, 39.7 16.53 C39.9 17.67, 39.95 19.42, 40 20 C40.05 20.58, 40.05 19.42, 40 20" stroke="#000000" stroke-width="2" fill="none"></path></g><g stroke-linecap="round" transform="translate(330 210) rotate(0 20 20)"><path d="M40 20 C40 21.16, 39.9 22.33, 39.7 23.47 C39.5 24.61, 39.19 25.75, 38.79 26.84 C38.4 27.93, 37.9 29, 37.32 30 C36.74 31, 36.07 31.97, 35.32 32.86 C34.58 33.74, 33.74 34.58, 32.86 35.32 C31.97 36.07, 31 36.74, 30 37.32 C29 37.9, 27.93 38.4, 26.84 38.79 C25.75 39.19, 24.61 39.5, 23.47 39.7 C22.33 39.9, 21.16 40, 20 40 C18.84 40, 17.67 39.9, 16.53 39.7 C15.39 39.5, 14.25 39.19, 13.16 38.79 C12.07 38.4, 11 37.9, 10 37.32 C9 36.74, 8.03 36.07, 7.14 35.32 C6.26 34.58, 5.42 33.74, 4.68 32.86 C3.93 31.97, 3.26 31, 2.68 30 C2.1 29, 1.6 27.93, 1.21 26.84 C0.81 25.75, 0.5 24.61, 0.3 23.47 C0.1 22.33, 0 21.16, 0 20 C0 18.84, 0.1 17.67, 0.3 16.53 C0.5 15.39, 0.81 14.25, 1.21 13.16 C1.6 12.07, 2.1 11, 2.68 10 C3.26 9, 3.93 8.03, 4.68 7.14 C5.42 6.26, 6.26 5.42, 7.14 4.68 C8.03 3.93, 9 3.26, 10 2.68 C11 2.1, 12.07 1.6, 13.16 1.21 C14.25 0.81, 15.39 0.5, 16.53 0.3 C17.67 0.1, 18.84 0, 20 0 C21.16 0, 22.33 0.1, 23.47 0.3 C24.61 0.5, 25.75 0.81, 26.84 1.21 C27.93 1.6, 29 2.1, 30 2.68 C31 3.26, 31.97 3.93, 32.86 4.68 C33.74 5.42, 34.58 6.26, 35.32 7.14 C36.07 8.03, 36.74 9, 37.32 10 C37.9 11, 38.4 12.07, 38.79 13.16 C39.19 14.25, 39.5 15.39, 39.7 16.53 C39.9 17.67, 39.95 19.42, 40 20 C40.05 20.58, 40.05 19.42, 40 20" stroke="#000000" stroke-width="2" fill="none"></path></g><g stroke-linecap="round"><g transform="translate(90 230) rotate(0 120 0)"><path d="M0 0 C94.62 0, 189.25 0, 240 0 M0 0 C75.91 0, 151.81 0, 240 0" stroke="#000000" stroke-width="2" fill="none"></path></g><g transform="translate(90 230) rotate(0 120 0)"><path d="M211.81 10.26 C222.92 6.22, 234.04 2.17, 240 0 M211.81 10.26 C220.73 7.02, 229.64 3.77, 240 0" stroke="#000000" stroke-width="2" fill="none"></path></g><g transform="translate(90 230) rotate(0 120 0)"><path d="M211.81 -10.26 C222.92 -6.22, 234.04 -2.17, 240 0 M211.81 -10.26 C220.73 -7.02, 229.64 -3.77, 240 0" stroke="#000000" stroke-width="2" fill="none"></path></g></g><mask></mask><g transform="translate(70 250) rotate(0 5 10)"><text x="0" y="16" font-family="Cascadia, Segoe UI Emoji" font-size="16px" fill="#000000" text-anchor="start" style="white-space: pre;" direction="ltr">i</text></g><g transform="translate(350 250) rotate(0 14.5 10)"><text x="0" y="16" font-family="Cascadia, Segoe UI Emoji" font-size="16px" fill="#000000" text-anchor="start" style="white-space: pre;" direction="ltr">i+1</text></g><g transform="translate(170 230) rotate(0 38 10)"><text x="0" y="16" font-family="Cascadia, Segoe UI Emoji" font-size="16px" fill="#000000" text-anchor="start" style="white-space: pre;" direction="ltr">MAX - Ai</text></g><g stroke-linecap="round"><g transform="translate(70 190) rotate(0 140 0)"><path d="M0 0 C110.16 0, 220.32 0, 280 0 M0 0 C104.87 0, 209.74 0, 280 0" stroke="#c92a2a" stroke-width="1" fill="none"></path></g><g transform="translate(70 190) rotate(0 140 0)"><path d="M251.81 10.26 C262.9 6.22, 273.99 2.19, 280 0 M251.81 10.26 C262.37 6.42, 272.93 2.57, 280 0" stroke="#c92a2a" stroke-width="1" fill="none"></path></g><g transform="translate(70 190) rotate(0 140 0)"><path d="M251.81 -10.26 C262.9 -6.22, 273.99 -2.19, 280 0 M251.81 -10.26 C262.37 -6.42, 272.93 -2.57, 280 0" stroke="#c92a2a" stroke-width="1" fill="none"></path></g></g><mask></mask><g stroke-linecap="round"><g transform="translate(70 150) rotate(0 140 0)"><path d="M0 0 C82.75 0, 165.5 0, 280 0 M0 0 C83.98 0, 167.96 0, 280 0" stroke="#5c940d" stroke-width="1" fill="none"></path></g><g transform="translate(70 150) rotate(0 140 0)"><path d="M251.81 10.26 C260.14 7.23, 268.47 4.2, 280 0 M251.81 10.26 C260.26 7.18, 268.72 4.11, 280 0" stroke="#5c940d" stroke-width="1" fill="none"></path></g><g transform="translate(70 150) rotate(0 140 0)"><path d="M251.81 -10.26 C260.14 -7.23, 268.47 -4.2, 280 0 M251.81 -10.26 C260.26 -7.18, 268.72 -4.11, 280 0" stroke="#5c940d" stroke-width="1" fill="none"></path></g></g><mask></mask><g stroke-linecap="round"><g transform="translate(10 150) rotate(0 30 0)"><path d="M0 0 C14.65 0, 29.3 0, 60 0" stroke="#5c940d" stroke-width="1.5" fill="none" stroke-dasharray="1.5 7"></path></g></g><mask></mask><g stroke-linecap="round"><g transform="translate(350 150) rotate(0 30 0)"><path d="M0 0 C16.94 0, 33.88 0, 60 0" stroke="#5c940d" stroke-width="1.5" fill="none" stroke-dasharray="1.5 7"></path></g></g><mask></mask><g stroke-linecap="round"><g transform="translate(350 190) rotate(0 30 0)"><path d="M0 0 C23.58 0, 47.16 0, 60 0" stroke="#c92a2a" stroke-width="1.5" fill="none" stroke-dasharray="1.5 7"></path></g></g><mask></mask><g stroke-linecap="round"><g transform="translate(10 190) rotate(0 30 0)"><path d="M0 0 C21.63 0, 43.27 0, 60 0" stroke="#c92a2a" stroke-width="1.5" fill="none" stroke-dasharray="1.5 7"></path></g></g><mask></mask><g stroke-linecap="round"><g transform="translate(70 110) rotate(0 140 0)"><path d="M0 0 C67.68 0, 135.36 0, 280 0 M0 0 C58.23 0, 116.45 0, 280 0" stroke="#364fc7" stroke-width="1" fill="none"></path></g><g transform="translate(70 110) rotate(0 140 0)"><path d="M251.81 10.26 C258.62 7.78, 265.44 5.3, 280 0 M251.81 10.26 C257.67 8.13, 263.53 5.99, 280 0" stroke="#364fc7" stroke-width="1" fill="none"></path></g><g transform="translate(70 110) rotate(0 140 0)"><path d="M251.81 -10.26 C258.62 -7.78, 265.44 -5.3, 280 0 M251.81 -10.26 C257.67 -8.13, 263.53 -5.99, 280 0" stroke="#364fc7" stroke-width="1" fill="none"></path></g></g><mask></mask><g stroke-linecap="round"><g transform="translate(10 110) rotate(0 30 0)"><path d="M0 0 C19.69 0, 39.38 0, 60 0" stroke="#364fc7" stroke-width="1.5" fill="none" stroke-dasharray="1.5 7"></path></g></g><mask></mask><g stroke-linecap="round"><g transform="translate(350 110) rotate(0 30 0)"><path d="M0 0 C13.51 0, 27.01 0, 60 0" stroke="#364fc7" stroke-width="1.5" fill="none" stroke-dasharray="1.5 7"></path></g></g><mask></mask><g stroke-linecap="round"><g transform="translate(210 90) rotate(0 0 -30)"><path d="M0 0 C0 -15.63, 0 -31.26, 0 -60" stroke="#000000" stroke-width="1.5" fill="none" stroke-dasharray="1.5 7"></path></g></g><mask></mask><g stroke-linecap="round" transform="translate(110 10) rotate(0 100 100)"><path d="M0 0 C0 0, 0 0, 0 0 M0 0 C0 0, 0 0, 0 0 M-0.26 6.4 C1.1 4.84, 2.45 3.28, 4.99 0.36 M-0.26 6.4 C0.81 5.17, 1.88 3.94, 4.99 0.36 M0.13 12.04 C3.59 8.07, 7.04 4.1, 10.63 -0.03 M0.13 12.04 C2.46 9.36, 4.79 6.69, 10.63 -0.03 M-0.13 18.44 C3.57 14.18, 7.27 9.92, 15.62 0.33 M-0.13 18.44 C5.97 11.42, 12.08 4.4, 15.62 0.33 M0.27 24.08 C6.89 16.46, 13.51 8.85, 21.26 -0.07 M0.27 24.08 C7.66 15.57, 15.06 7.07, 21.26 -0.07 M0 30.48 C7.45 21.92, 14.89 13.35, 26.25 0.29 M0 30.48 C7.13 22.29, 14.25 14.09, 26.25 0.29 M-0.26 36.88 C9.19 26.01, 18.64 15.14, 31.89 -0.1 M-0.26 36.88 C9.05 26.17, 18.35 15.47, 31.89 -0.1 M0.14 42.52 C11.42 29.55, 22.69 16.57, 36.88 0.26 M0.14 42.52 C12.05 28.82, 23.96 15.12, 36.88 0.26 M-0.12 48.92 C15.03 31.49, 30.18 14.05, 42.52 -0.14 M-0.12 48.92 C14.85 31.69, 29.82 14.47, 42.52 -0.14 M0.27 54.56 C14.88 37.76, 29.49 20.95, 47.51 0.22 M0.27 54.56 C18.6 33.48, 36.93 12.39, 47.51 0.22 M0.01 60.96 C18.19 40.04, 36.38 19.12, 53.15 -0.17 M0.01 60.96 C20.15 37.8, 40.28 14.63, 53.15 -0.17 M-0.25 67.36 C17.05 47.45, 34.35 27.55, 58.14 0.19 M-0.25 67.36 C21.86 41.92, 43.98 16.48, 58.14 0.19 M0.14 73 C22.32 47.49, 44.5 21.98, 63.78 -0.21 M0.14 73 C15.27 55.6, 30.39 38.2, 63.78 -0.21 M-0.12 79.4 C25.75 49.64, 51.61 19.89, 68.77 0.15 M-0.12 79.4 C26.43 48.85, 52.98 18.31, 68.77 0.15 M0.28 85.04 C16.58 66.29, 32.88 47.53, 74.41 -0.24 M0.28 85.04 C23.68 58.11, 47.09 31.19, 74.41 -0.24 M0.01 91.44 C20.31 68.09, 40.61 44.74, 79.4 0.12 M0.01 91.44 C29.44 57.59, 58.86 23.74, 79.4 0.12 M-0.25 97.84 C21.39 72.95, 43.02 48.07, 85.04 -0.28 M-0.25 97.84 C18.94 75.77, 38.12 53.7, 85.04 -0.28 M0.15 103.48 C31.37 67.57, 62.58 31.65, 90.03 0.08 M0.15 103.48 C24.45 75.52, 48.76 47.56, 90.03 0.08 M-0.11 109.88 C28.47 76.99, 57.06 44.11, 95.67 -0.31 M-0.11 109.88 C28.67 76.77, 57.45 43.66, 95.67 -0.31 M0.28 115.52 C26.63 85.21, 52.98 54.89, 100.66 0.05 M0.28 115.52 C29.81 81.55, 59.35 47.57, 100.66 0.05 M0.02 121.92 C27.08 90.79, 54.14 59.66, 106.3 -0.34 M0.02 121.92 C32.01 85.11, 64.01 48.31, 106.3 -0.34 M-0.24 128.32 C34.87 87.92, 69.99 47.53, 111.29 0.02 M-0.24 128.32 C24.84 99.46, 49.92 70.61, 111.29 0.02 M0.15 133.96 C43.59 83.99, 87.03 34.02, 116.27 0.38 M0.15 133.96 C36 92.72, 71.85 51.48, 116.27 0.38 M-0.11 140.36 C26.67 109.55, 53.45 78.74, 121.92 -0.02 M-0.11 140.36 C38.79 95.61, 77.69 50.86, 121.92 -0.02 M0.29 146 C45.89 93.53, 91.5 41.07, 126.91 0.34 M0.29 146 C29.29 112.64, 58.29 79.27, 126.91 0.34 M0.02 152.4 C52.12 92.47, 104.21 32.55, 132.55 -0.05 M0.02 152.4 C27.27 121.05, 54.53 89.7, 132.55 -0.05 M-0.24 158.8 C36.69 116.31, 73.62 73.83, 137.54 0.31 M-0.24 158.8 C39.86 112.67, 79.96 66.54, 137.54 0.31 M0.16 164.44 C36.48 122.65, 72.81 80.87, 143.18 -0.09 M0.16 164.44 C55.74 100.49, 111.33 36.55, 143.18 -0.09 M-0.1 170.84 C30.17 136.01, 60.44 101.19, 148.17 0.27 M-0.1 170.84 C51.36 111.64, 102.82 52.44, 148.17 0.27 M0.29 176.48 C49.73 119.61, 99.17 62.73, 153.81 -0.12 M0.29 176.48 C53.17 115.64, 106.06 54.81, 153.81 -0.12 M0.03 182.88 C36.02 141.47, 72.01 100.07, 158.8 0.24 M0.03 182.88 C59.25 114.75, 118.48 46.62, 158.8 0.24 M-0.23 189.27 C52.24 128.91, 104.71 68.55, 164.44 -0.16 M-0.23 189.27 C36.52 147, 73.27 104.72, 164.44 -0.16 M0.16 194.92 C41.69 147.15, 83.21 99.38, 169.43 0.2 M0.16 194.92 C62.48 123.23, 124.8 51.54, 169.43 0.2 M0.56 200.56 C47.11 147, 93.67 93.44, 175.07 -0.19 M0.56 200.56 C61.34 130.64, 122.12 60.72, 175.07 -0.19 M6.2 200.17 C62.06 135.91, 117.92 71.64, 180.06 0.17 M6.2 200.17 C50.58 149.11, 94.96 98.06, 180.06 0.17 M11.19 200.53 C79.42 122.03, 147.65 43.54, 185.7 -0.23 M11.19 200.53 C66.46 136.94, 121.73 73.36, 185.7 -0.23 M16.17 200.89 C80.3 127.12, 144.42 53.35, 190.69 0.13 M16.17 200.89 C82.57 124.51, 148.96 48.13, 190.69 0.13 M21.82 200.49 C59.75 156.85, 97.68 113.22, 196.33 -0.26 M21.82 200.49 C73.97 140.49, 126.13 80.49, 196.33 -0.26 M26.8 200.85 C69.95 151.22, 113.09 101.59, 200.66 0.85 M26.8 200.85 C63.9 158.18, 100.99 115.51, 200.66 0.85 M32.45 200.46 C78.57 147.4, 124.7 94.34, 201.05 6.5 M32.45 200.46 C89.53 134.79, 146.62 69.12, 201.05 6.5 M37.43 200.82 C83.07 148.32, 128.7 95.83, 200.79 12.89 M37.43 200.82 C77.78 154.4, 118.13 107.99, 200.79 12.89 M43.08 200.42 C104.3 130, 165.52 59.57, 200.53 19.29 M43.08 200.42 C82.93 154.58, 122.78 108.74, 200.53 19.29 M48.06 200.78 C98.28 143.01, 148.5 85.24, 200.93 24.94 M48.06 200.78 C93.59 148.41, 139.13 96.03, 200.93 24.94 M53.71 200.39 C111.59 133.8, 169.48 67.21, 200.66 31.33 M53.71 200.39 C102.66 144.08, 151.61 87.76, 200.66 31.33 M58.69 200.75 C103.51 149.2, 148.32 97.65, 201.06 36.98 M58.69 200.75 C88 167.03, 117.31 133.32, 201.06 36.98 M64.34 200.35 C94.52 165.64, 124.69 130.92, 200.8 43.37 M64.34 200.35 C97.46 162.25, 130.59 124.14, 200.8 43.37 M69.32 200.71 C109.83 154.12, 150.34 107.52, 200.54 49.77 M69.32 200.71 C113.2 150.24, 157.07 99.77, 200.54 49.77 M74.97 200.32 C100.73 170.68, 126.49 141.05, 200.93 55.42 M74.97 200.32 C115.23 154, 155.49 107.69, 200.93 55.42 M79.95 200.68 C108.03 168.39, 136.1 136.09, 200.67 61.81 M79.95 200.68 C112.57 163.16, 145.18 125.64, 200.67 61.81 M85.6 200.28 C129.41 149.88, 173.22 99.48, 201.06 67.46 M85.6 200.28 C117.32 163.79, 149.04 127.3, 201.06 67.46 M90.58 200.65 C130.26 155, 169.95 109.35, 200.8 73.85 M90.58 200.65 C126.24 159.63, 161.89 118.61, 200.8 73.85 M96.23 200.25 C136.18 154.29, 176.13 108.34, 200.54 80.25 M96.23 200.25 C126.74 165.15, 157.25 130.05, 200.54 80.25 M101.21 200.61 C122.8 175.78, 144.38 150.95, 200.94 85.89 M101.21 200.61 C123.95 174.45, 146.69 148.3, 200.94 85.89 M106.86 200.22 C140.04 162.04, 173.22 123.87, 200.67 92.29 M106.86 200.22 C137.9 164.51, 168.93 128.81, 200.67 92.29 M111.84 200.58 C136.71 171.97, 161.58 143.36, 201.07 97.94 M111.84 200.58 C133.33 175.86, 154.82 151.14, 201.07 97.94 M117.49 200.18 C136.8 177.96, 156.12 155.75, 200.81 104.33 M117.49 200.18 C135.91 178.99, 154.32 157.81, 200.81 104.33 M122.47 200.54 C143.96 175.82, 165.45 151.1, 200.55 110.73 M122.47 200.54 C141.4 178.77, 160.33 157, 200.55 110.73 M128.12 200.15 C146.98 178.45, 165.84 156.75, 200.94 116.37 M128.12 200.15 C154.91 169.33, 181.7 138.51, 200.94 116.37 M133.1 200.51 C152.44 178.27, 171.77 156.03, 200.68 122.77 M133.1 200.51 C149.11 182.09, 165.12 163.68, 200.68 122.77 M138.09 200.87 C155.64 180.69, 173.18 160.5, 201.07 128.42 M138.09 200.87 C153.81 182.78, 169.53 164.7, 201.07 128.42 M143.73 200.47 C157.59 184.53, 171.45 168.59, 200.81 134.81 M143.73 200.47 C158.09 183.96, 172.45 167.44, 200.81 134.81 M148.72 200.83 C160.92 186.8, 173.12 172.77, 200.55 141.21 M148.72 200.83 C165.19 181.89, 181.66 162.94, 200.55 141.21 M154.37 200.44 C165.01 188.2, 175.65 175.96, 200.95 146.85 M154.37 200.44 C165.42 187.72, 176.47 175.01, 200.95 146.85 M159.35 200.8 C170.75 187.69, 182.15 174.58, 200.68 153.25 M159.35 200.8 C171.65 186.65, 183.94 172.51, 200.68 153.25 M165 200.4 C178.63 184.72, 192.26 169.04, 201.08 158.89 M165 200.4 C178.29 185.11, 191.58 169.82, 201.08 158.89 M169.98 200.76 C177.62 191.97, 185.26 183.19, 200.82 165.29 M169.98 200.76 C178.84 190.57, 187.7 180.38, 200.82 165.29 M175.63 200.37 C185.03 189.56, 194.43 178.74, 200.56 171.69 M175.63 200.37 C184.17 190.54, 192.71 180.71, 200.56 171.69 M180.61 200.73 C184.7 196.03, 188.79 191.33, 200.95 177.33 M180.61 200.73 C185.88 194.67, 191.15 188.61, 200.95 177.33 M186.26 200.33 C191.51 194.29, 196.77 188.24, 200.69 183.73 M186.26 200.33 C190.31 195.67, 194.37 191, 200.69 183.73 M191.24 200.69 C194.06 197.45, 196.88 194.21, 201.08 189.37 M191.24 200.69 C194.77 196.64, 198.29 192.58, 201.08 189.37 M196.89 200.3 C197.78 199.27, 198.68 198.23, 200.82 195.77 M196.89 200.3 C197.79 199.27, 198.68 198.23, 200.82 195.77" stroke="#ced4da" stroke-width="0.5" fill="none"></path><path d="M0 0 C65.17 0, 130.33 0, 200 0 M200 0 C200 65.01, 200 130.02, 200 200 M200 200 C149.39 200, 98.78 200, 0 200 M0 200 C0 135.09, 0 70.18, 0 0" stroke="#495057" stroke-width="1.5" fill="none" stroke-dasharray="8 9"></path></g><g transform="translate(321.0118282343184 33.04558666841007) rotate(0 10 10)"><text x="0" y="16" font-family="Cascadia, Segoe UI Emoji" font-size="16px" fill="#000000" text-anchor="start" style="white-space: pre;" direction="ltr">Ai</text></g></svg>