<svg version="1.1" xmlns="http://www.w3.org/2000/svg" viewBox="0 0 240 240" width="240" height="240">
  <!-- svg-source:excalidraw -->
  
  <defs>
    <style class="style-fonts">
      @font-face {
        font-family: "Virgil";
        src: url("https://excalidraw.com/Virgil.woff2");
      }
      @font-face {
        font-family: "Cascadia";
        src: url("https://excalidraw.com/Cascadia.woff2");
      }
    </style>
  </defs>
  <rect x="0" y="0" width="240" height="240" fill="#ffffff"></rect><g stroke-linecap="round" transform="translate(50 170) rotate(0 10 10)"><path d="M0 0 C0 0, 0 0, 0 0 M0 0 C0 0, 0 0, 0 0 M-0.26 6.4 C1.78 4.05, 3.81 1.71, 4.99 0.36 M-0.26 6.4 C1.53 4.33, 3.33 2.27, 4.99 0.36 M0.13 12.04 C4.11 7.47, 8.09 2.89, 10.63 -0.03 M0.13 12.04 C3.24 8.46, 6.35 4.88, 10.63 -0.03 M-0.13 18.44 C5.84 11.58, 11.8 4.72, 15.62 0.33 M-0.13 18.44 C5.36 12.13, 10.85 5.81, 15.62 0.33 M2.23 21.82 C6.6 16.8, 10.97 11.77, 20.6 0.69 M2.23 21.82 C9.13 13.88, 16.03 5.95, 20.6 0.69 M7.22 22.18 C12.53 16.07, 17.84 9.96, 21 6.33 M7.22 22.18 C10.25 18.69, 13.28 15.21, 21 6.33 M12.86 21.78 C15.35 18.92, 17.84 16.06, 20.74 12.73 M12.86 21.78 C14.88 19.47, 16.89 17.15, 20.74 12.73 M17.85 22.14 C18.82 21.02, 19.8 19.91, 20.48 19.12 M17.85 22.14 C18.52 21.38, 19.18 20.61, 20.48 19.12 M-0.09 19.92 C-0.09 19.92, -0.09 19.92, -0.09 19.92 M-0.09 19.92 C-0.09 19.92, -0.09 19.92, -0.09 19.92 M6.31 20.18 C4.67 18.76, 3.04 17.34, 0.27 14.93 M6.31 20.18 C4.5 18.62, 2.7 17.05, 0.27 14.93 M11.95 19.79 C8.32 16.63, 4.69 13.48, -0.13 9.29 M11.95 19.79 C8.78 17.03, 5.61 14.28, -0.13 9.29 M18.35 20.05 C13.02 15.42, 7.69 10.78, 0.23 4.3 M18.35 20.05 C13.74 16.04, 9.12 12.03, 0.23 4.3 M21.73 17.69 C15.36 12.16, 9 6.63, 0.59 -0.68 M21.73 17.69 C15.07 11.9, 8.42 6.12, 0.59 -0.68 M22.09 12.7 C18.69 9.75, 15.3 6.8, 6.99 -0.42 M22.09 12.7 C16.44 7.79, 10.79 2.88, 6.99 -0.42 M21.69 7.06 C18.9 4.63, 16.1 2.2, 12.64 -0.82 M21.69 7.06 C19.7 5.33, 17.72 3.6, 12.64 -0.82 M22.05 2.07 C21.09 1.23, 20.13 0.4, 19.03 -0.56 M22.05 2.07 C20.96 1.12, 19.88 0.18, 19.03 -0.56" stroke="#fd7e14" stroke-width="0.5" fill="none"></path><path d="M0 0 C5.79 0, 11.58 0, 20 0 M20 0 C20 6.14, 20 12.28, 20 20 M20 20 C13.52 20, 7.03 20, 0 20 M0 20 C0 12.89, 0 5.79, 0 0" stroke="#000000" stroke-width="1.5" fill="none" stroke-dasharray="8 9"></path></g><g stroke-linecap="round" transform="translate(50 130) rotate(0 10 10)"><path d="M0 0 C0 0, 0 0, 0 0 M0 0 C0 0, 0 0, 0 0 M-0.26 6.4 C1.58 4.28, 3.42 2.16, 4.99 0.36 M-0.26 6.4 C1.52 4.35, 3.29 2.31, 4.99 0.36 M0.13 12.04 C3.94 7.66, 7.75 3.28, 10.63 -0.03 M0.13 12.04 C2.54 9.27, 4.95 6.5, 10.63 -0.03 M-0.13 18.44 C6.12 11.25, 12.36 4.07, 15.62 0.33 M-0.13 18.44 C3.35 14.43, 6.83 10.43, 15.62 0.33 M2.23 21.82 C9.14 13.87, 16.04 5.93, 20.6 0.69 M2.23 21.82 C6.02 17.47, 9.8 13.12, 20.6 0.69 M7.22 22.18 C10.36 18.57, 13.5 14.96, 21 6.33 M7.22 22.18 C10.2 18.75, 13.18 15.33, 21 6.33 M12.86 21.78 C15.77 18.44, 18.67 15.1, 20.74 12.73 M12.86 21.78 C15.94 18.25, 19.01 14.71, 20.74 12.73 M17.85 22.14 C18.61 21.27, 19.36 20.4, 20.48 19.12 M17.85 22.14 C18.48 21.42, 19.11 20.7, 20.48 19.12 M-0.09 19.92 C-0.09 19.92, -0.09 19.92, -0.09 19.92 M-0.09 19.92 C-0.09 19.92, -0.09 19.92, -0.09 19.92 M6.31 20.18 C3.92 18.11, 1.53 16.03, 0.27 14.93 M6.31 20.18 C4.14 18.3, 1.97 16.41, 0.27 14.93 M11.95 19.79 C7.26 15.71, 2.56 11.63, -0.13 9.29 M11.95 19.79 C8.3 16.62, 4.66 13.45, -0.13 9.29 M18.35 20.05 C14 16.27, 9.65 12.48, 0.23 4.3 M18.35 20.05 C13.02 15.41, 7.68 10.78, 0.23 4.3 M21.73 17.69 C15.97 12.69, 10.22 7.69, 0.59 -0.68 M21.73 17.69 C13.44 10.49, 5.16 3.29, 0.59 -0.68 M22.09 12.7 C17.76 8.94, 13.44 5.19, 6.99 -0.42 M22.09 12.7 C17.33 8.56, 12.57 4.43, 6.99 -0.42 M21.69 7.06 C19.44 5.1, 17.2 3.15, 12.64 -0.82 M21.69 7.06 C19.73 5.35, 17.78 3.65, 12.64 -0.82 M22.05 2.07 C21.23 1.36, 20.41 0.64, 19.03 -0.56 M22.05 2.07 C21.01 1.17, 19.98 0.26, 19.03 -0.56" stroke="#fd7e14" stroke-width="0.5" fill="none"></path><path d="M0 0 C6.4 0, 12.8 0, 20 0 M20 0 C20 7.82, 20 15.63, 20 20 M20 20 C13.58 20, 7.17 20, 0 20 M0 20 C0 13.91, 0 7.81, 0 0" stroke="#000000" stroke-width="1.5" fill="none" stroke-dasharray="8 9"></path></g><g stroke-linecap="round" transform="translate(90 170) rotate(0 10 10)"><path d="M0 0 C0 0, 0 0, 0 0 M0 0 C0 0, 0 0, 0 0 M-0.26 6.4 C1.1 4.83, 2.46 3.27, 4.99 0.36 M-0.26 6.4 C1.04 4.9, 2.35 3.39, 4.99 0.36 M0.13 12.04 C3.32 8.38, 6.5 4.71, 10.63 -0.03 M0.13 12.04 C3.21 8.51, 6.28 4.97, 10.63 -0.03 M-0.13 18.44 C5.52 11.94, 11.17 5.44, 15.62 0.33 M-0.13 18.44 C3.28 14.51, 6.69 10.59, 15.62 0.33 M2.23 21.82 C8.24 14.91, 14.24 8.01, 20.6 0.69 M2.23 21.82 C7.12 16.2, 12.01 10.58, 20.6 0.69 M7.22 22.18 C11.95 16.74, 16.68 11.29, 21 6.33 M7.22 22.18 C12.48 16.13, 17.74 10.08, 21 6.33 M12.86 21.78 C15.58 18.66, 18.3 15.54, 20.74 12.73 M12.86 21.78 C15.89 18.31, 18.91 14.83, 20.74 12.73 M17.85 22.14 C18.73 21.14, 19.6 20.13, 20.48 19.12 M17.85 22.14 C18.53 21.37, 19.2 20.59, 20.48 19.12 M-0.09 19.92 C-0.09 19.92, -0.09 19.92, -0.09 19.92 M-0.09 19.92 C-0.09 19.92, -0.09 19.92, -0.09 19.92 M6.31 20.18 C4.49 18.6, 2.67 17.02, 0.27 14.93 M6.31 20.18 C4.02 18.19, 1.73 16.2, 0.27 14.93 M11.95 19.79 C9.5 17.66, 7.05 15.52, -0.13 9.29 M11.95 19.79 C7.4 15.84, 2.86 11.88, -0.13 9.29 M18.35 20.05 C11.65 14.23, 4.96 8.41, 0.23 4.3 M18.35 20.05 C14.56 16.76, 10.77 13.47, 0.23 4.3 M21.73 17.69 C17.17 13.73, 12.62 9.77, 0.59 -0.68 M21.73 17.69 C16.51 13.15, 11.29 8.62, 0.59 -0.68 M22.09 12.7 C17.33 8.57, 12.58 4.43, 6.99 -0.42 M22.09 12.7 C18.62 9.68, 15.15 6.67, 6.99 -0.42 M21.69 7.06 C18.36 4.16, 15.03 1.27, 12.64 -0.82 M21.69 7.06 C19.4 5.07, 17.12 3.08, 12.64 -0.82 M22.05 2.07 C21.26 1.38, 20.46 0.68, 19.03 -0.56 M22.05 2.07 C21.3 1.42, 20.55 0.76, 19.03 -0.56" stroke="#40c057" stroke-width="0.5" fill="none"></path><path d="M0 0 C4.27 0, 8.53 0, 20 0 M20 0 C20 5.93, 20 11.86, 20 20 M20 20 C14.51 20, 9.01 20, 0 20 M0 20 C0 14.24, 0 8.49, 0 0" stroke="#000000" stroke-width="1.5" fill="none" stroke-dasharray="8 9"></path></g><g stroke-linecap="round" transform="translate(90 130) rotate(0 10 10)"><path d="M0 0 C0 0, 0 0, 0 0 M0 0 C0 0, 0 0, 0 0 M-0.26 6.4 C1.34 4.55, 2.94 2.71, 4.99 0.36 M-0.26 6.4 C0.83 5.14, 1.92 3.89, 4.99 0.36 M0.13 12.04 C2.71 9.07, 5.29 6.1, 10.63 -0.03 M0.13 12.04 C4.12 7.46, 8.1 2.87, 10.63 -0.03 M-0.13 18.44 C4.06 13.62, 8.25 8.8, 15.62 0.33 M-0.13 18.44 C4.79 12.79, 9.7 7.13, 15.62 0.33 M2.23 21.82 C8.88 14.18, 15.52 6.54, 20.6 0.69 M2.23 21.82 C7.96 15.23, 13.7 8.63, 20.6 0.69 M7.22 22.18 C12.14 16.52, 17.07 10.85, 21 6.33 M7.22 22.18 C10 18.99, 12.77 15.79, 21 6.33 M12.86 21.78 C15.95 18.23, 19.04 14.68, 20.74 12.73 M12.86 21.78 C15.1 19.21, 17.34 16.64, 20.74 12.73 M17.85 22.14 C18.65 21.23, 19.45 20.31, 20.48 19.12 M17.85 22.14 C18.4 21.51, 18.96 20.87, 20.48 19.12 M-0.09 19.92 C-0.09 19.92, -0.09 19.92, -0.09 19.92 M-0.09 19.92 C-0.09 19.92, -0.09 19.92, -0.09 19.92 M6.31 20.18 C5.08 19.11, 3.84 18.04, 0.27 14.93 M6.31 20.18 C4.94 19, 3.58 17.81, 0.27 14.93 M11.95 19.79 C9.31 17.49, 6.67 15.2, -0.13 9.29 M11.95 19.79 C7.83 16.2, 3.7 12.62, -0.13 9.29 M18.35 20.05 C14.18 16.43, 10.02 12.81, 0.23 4.3 M18.35 20.05 C11.37 13.98, 4.39 7.91, 0.23 4.3 M21.73 17.69 C16.8 13.41, 11.88 9.12, 0.59 -0.68 M21.73 17.69 C16.92 13.51, 12.11 9.33, 0.59 -0.68 M22.09 12.7 C17.15 8.41, 12.21 4.12, 6.99 -0.42 M22.09 12.7 C16.38 7.74, 10.67 2.78, 6.99 -0.42 M21.69 7.06 C19.88 5.48, 18.06 3.9, 12.64 -0.82 M21.69 7.06 C18.48 4.27, 15.27 1.47, 12.64 -0.82 M22.05 2.07 C21.1 1.24, 20.15 0.42, 19.03 -0.56 M22.05 2.07 C21.01 1.16, 19.97 0.26, 19.03 -0.56" stroke="#40c057" stroke-width="0.5" fill="none"></path><path d="M0 0 C5.58 0, 11.15 0, 20 0 M20 0 C20 5.01, 20 10.03, 20 20 M20 20 C15.54 20, 11.08 20, 0 20 M0 20 C0 15.88, 0 11.76, 0 0" stroke="#000000" stroke-width="1.5" fill="none" stroke-dasharray="8 9"></path></g><g stroke-linecap="round" transform="translate(130 170) rotate(0 10 10)"><path d="M0 0 C0 0, 0 0, 0 0 M0 0 C0 0, 0 0, 0 0 M-0.26 6.4 C1.73 4.11, 3.71 1.82, 4.99 0.36 M-0.26 6.4 C1.57 4.29, 3.4 2.19, 4.99 0.36 M0.13 12.04 C2.63 9.17, 5.12 6.3, 10.63 -0.03 M0.13 12.04 C4.07 7.51, 8.02 2.97, 10.63 -0.03 M-0.13 18.44 C5.94 11.46, 12.01 4.48, 15.62 0.33 M-0.13 18.44 C3.33 14.46, 6.8 10.47, 15.62 0.33 M2.23 21.82 C8.03 15.15, 13.83 8.47, 20.6 0.69 M2.23 21.82 C6.93 16.41, 11.63 11.01, 20.6 0.69 M7.22 22.18 C12.33 16.3, 17.43 10.43, 21 6.33 M7.22 22.18 C10.72 18.16, 14.21 14.14, 21 6.33 M12.86 21.78 C14.64 19.75, 16.41 17.71, 20.74 12.73 M12.86 21.78 C15.6 18.64, 18.33 15.49, 20.74 12.73 M17.85 22.14 C18.56 21.33, 19.27 20.51, 20.48 19.12 M17.85 22.14 C18.63 21.24, 19.42 20.34, 20.48 19.12 M-0.09 19.92 C-0.09 19.92, -0.09 19.92, -0.09 19.92 M-0.09 19.92 C-0.09 19.92, -0.09 19.92, -0.09 19.92 M6.31 20.18 C4.53 18.64, 2.75 17.09, 0.27 14.93 M6.31 20.18 C4.77 18.85, 3.23 17.51, 0.27 14.93 M11.95 19.79 C8.31 16.63, 4.68 13.47, -0.13 9.29 M11.95 19.79 C8.15 16.48, 4.35 13.18, -0.13 9.29 M18.35 20.05 C14.27 16.51, 10.2 12.97, 0.23 4.3 M18.35 20.05 C11.57 14.16, 4.8 8.27, 0.23 4.3 M21.73 17.69 C15.2 12.02, 8.68 6.34, 0.59 -0.68 M21.73 17.69 C17.09 13.65, 12.45 9.62, 0.59 -0.68 M22.09 12.7 C17.27 8.52, 12.46 4.33, 6.99 -0.42 M22.09 12.7 C16.65 7.97, 11.21 3.25, 6.99 -0.42 M21.69 7.06 C19.62 5.25, 17.54 3.45, 12.64 -0.82 M21.69 7.06 C18.13 3.96, 14.57 0.87, 12.64 -0.82 M22.05 2.07 C21.43 1.53, 20.81 0.99, 19.03 -0.56 M22.05 2.07 C21.24 1.37, 20.43 0.66, 19.03 -0.56" stroke="#15aabf" stroke-width="0.5" fill="none"></path><path d="M0 0 C7.02 0, 14.05 0, 20 0 M20 0 C20 6.19, 20 12.37, 20 20 M20 20 C12.24 20, 4.48 20, 0 20 M0 20 C0 13.16, 0 6.31, 0 0" stroke="#000000" stroke-width="1.5" fill="none" stroke-dasharray="8 9"></path></g><g stroke-linecap="round" transform="translate(130 130) rotate(0 10 10)"><path d="M0 0 C0 0, 0 0, 0 0 M0 0 C0 0, 0 0, 0 0 M-0.26 6.4 C1.57 4.3, 3.39 2.2, 4.99 0.36 M-0.26 6.4 C1.08 4.85, 2.42 3.31, 4.99 0.36 M0.13 12.04 C2.25 9.61, 4.36 7.18, 10.63 -0.03 M0.13 12.04 C2.39 9.44, 4.65 6.85, 10.63 -0.03 M-0.13 18.44 C4.11 13.57, 8.34 8.69, 15.62 0.33 M-0.13 18.44 C4.94 12.61, 10.01 6.77, 15.62 0.33 M2.23 21.82 C6.69 16.7, 11.14 11.57, 20.6 0.69 M2.23 21.82 C7.85 15.35, 13.47 8.89, 20.6 0.69 M7.22 22.18 C10.32 18.61, 13.43 15.04, 21 6.33 M7.22 22.18 C12.23 16.42, 17.24 10.66, 21 6.33 M12.86 21.78 C16.01 18.17, 19.15 14.55, 20.74 12.73 M12.86 21.78 C14.77 19.59, 16.69 17.39, 20.74 12.73 M17.85 22.14 C18.88 20.96, 19.9 19.78, 20.48 19.12 M17.85 22.14 C18.45 21.46, 19.04 20.77, 20.48 19.12 M-0.09 19.92 C-0.09 19.92, -0.09 19.92, -0.09 19.92 M-0.09 19.92 C-0.09 19.92, -0.09 19.92, -0.09 19.92 M6.31 20.18 C4.84 18.91, 3.38 17.64, 0.27 14.93 M6.31 20.18 C4.29 18.43, 2.28 16.68, 0.27 14.93 M11.95 19.79 C8.76 17.01, 5.57 14.24, -0.13 9.29 M11.95 19.79 C7.58 15.99, 3.21 12.19, -0.13 9.29 M18.35 20.05 C13.68 15.99, 9.02 11.94, 0.23 4.3 M18.35 20.05 C11.53 14.12, 4.71 8.19, 0.23 4.3 M21.73 17.69 C16.4 13.05, 11.07 8.42, 0.59 -0.68 M21.73 17.69 C17.36 13.89, 12.99 10.09, 0.59 -0.68 M22.09 12.7 C18.84 9.88, 15.59 7.05, 6.99 -0.42 M22.09 12.7 C18.72 9.77, 15.35 6.85, 6.99 -0.42 M21.69 7.06 C18.82 4.56, 15.95 2.07, 12.64 -0.82 M21.69 7.06 C19.67 5.3, 17.66 3.55, 12.64 -0.82 M22.05 2.07 C21.16 1.29, 20.26 0.51, 19.03 -0.56 M22.05 2.07 C21.41 1.51, 20.76 0.95, 19.03 -0.56" stroke="#15aabf" stroke-width="0.5" fill="none"></path><path d="M0 0 C7.47 0, 14.94 0, 20 0 M20 0 C20 4.07, 20 8.14, 20 20 M20 20 C14.22 20, 8.43 20, 0 20 M0 20 C0 12.17, 0 4.35, 0 0" stroke="#000000" stroke-width="1.5" fill="none" stroke-dasharray="8 9"></path></g><g stroke-linecap="round" transform="translate(170 170) rotate(0 10 10)"><path d="M0 0 C0 0, 0 0, 0 0 M0 0 C0 0, 0 0, 0 0 M-0.26 6.4 C1.57 4.29, 3.4 2.19, 4.99 0.36 M-0.26 6.4 C0.99 4.96, 2.23 3.53, 4.99 0.36 M0.13 12.04 C4.07 7.51, 8.02 2.97, 10.63 -0.03 M0.13 12.04 C4.18 7.39, 8.22 2.73, 10.63 -0.03 M-0.13 18.44 C3.33 14.46, 6.8 10.47, 15.62 0.33 M-0.13 18.44 C4.84 12.72, 9.81 7, 15.62 0.33 M2.23 21.82 C6.93 16.41, 11.63 11.01, 20.6 0.69 M2.23 21.82 C9.04 13.98, 15.85 6.15, 20.6 0.69 M7.22 22.18 C10.72 18.16, 14.21 14.14, 21 6.33 M7.22 22.18 C10.32 18.61, 13.42 15.05, 21 6.33 M12.86 21.78 C15.6 18.64, 18.33 15.49, 20.74 12.73 M12.86 21.78 C14.99 19.33, 17.12 16.88, 20.74 12.73 M17.85 22.14 C18.63 21.24, 19.42 20.34, 20.48 19.12 M17.85 22.14 C18.64 21.24, 19.43 20.33, 20.48 19.12 M-0.09 19.92 C-0.09 19.92, -0.09 19.92, -0.09 19.92 M-0.09 19.92 C-0.09 19.92, -0.09 19.92, -0.09 19.92 M6.31 20.18 C4.77 18.85, 3.23 17.51, 0.27 14.93 M6.31 20.18 C4.49 18.6, 2.67 17.02, 0.27 14.93 M11.95 19.79 C8.15 16.48, 4.35 13.18, -0.13 9.29 M11.95 19.79 C9.23 17.43, 6.52 15.07, -0.13 9.29 M18.35 20.05 C11.57 14.16, 4.8 8.27, 0.23 4.3 M18.35 20.05 C12.76 15.19, 7.16 10.33, 0.23 4.3 M21.73 17.69 C17.09 13.65, 12.45 9.62, 0.59 -0.68 M21.73 17.69 C14.99 11.83, 8.25 5.97, 0.59 -0.68 M22.09 12.7 C16.65 7.97, 11.21 3.25, 6.99 -0.42 M22.09 12.7 C18.63 9.69, 15.17 6.69, 6.99 -0.42 M21.69 7.06 C18.13 3.96, 14.57 0.87, 12.64 -0.82 M21.69 7.06 C19.83 5.44, 17.97 3.82, 12.64 -0.82 M22.05 2.07 C21.24 1.37, 20.43 0.66, 19.03 -0.56 M22.05 2.07 C21.17 1.31, 20.29 0.54, 19.03 -0.56" stroke="#be4bdb" stroke-width="0.5" fill="none"></path><path d="M0 0 C6.19 0, 12.37 0, 20 0 M20 0 C20 7.76, 20 15.52, 20 20 M20 20 C13.16 20, 6.31 20, 0 20 M0 20 C0 12.42, 0 4.84, 0 0" stroke="#000000" stroke-width="1.5" fill="none" stroke-dasharray="8 9"></path></g><g stroke-linecap="round" transform="translate(170 130) rotate(0 10 10)"><path d="M0 0 C0 0, 0 0, 0 0 M0 0 C0 0, 0 0, 0 0 M-0.26 6.4 C1.08 4.85, 2.42 3.31, 4.99 0.36 M-0.26 6.4 C0.8 5.18, 1.85 3.97, 4.99 0.36 M0.13 12.04 C2.39 9.44, 4.65 6.85, 10.63 -0.03 M0.13 12.04 C2.96 8.79, 5.78 5.54, 10.63 -0.03 M-0.13 18.44 C4.94 12.61, 10.01 6.77, 15.62 0.33 M-0.13 18.44 C3.69 14.05, 7.51 9.66, 15.62 0.33 M2.23 21.82 C7.85 15.35, 13.47 8.89, 20.6 0.69 M2.23 21.82 C6.37 17.06, 10.51 12.3, 20.6 0.69 M7.22 22.18 C12.23 16.42, 17.24 10.66, 21 6.33 M7.22 22.18 C12.72 15.85, 18.23 9.52, 21 6.33 M12.86 21.78 C14.77 19.59, 16.69 17.39, 20.74 12.73 M12.86 21.78 C15.94 18.24, 19.02 14.7, 20.74 12.73 M17.85 22.14 C18.45 21.46, 19.04 20.77, 20.48 19.12 M17.85 22.14 C18.73 21.13, 19.61 20.12, 20.48 19.12 M-0.09 19.92 C-0.09 19.92, -0.09 19.92, -0.09 19.92 M-0.09 19.92 C-0.09 19.92, -0.09 19.92, -0.09 19.92 M6.31 20.18 C4.29 18.43, 2.28 16.68, 0.27 14.93 M6.31 20.18 C4.71 18.8, 3.12 17.41, 0.27 14.93 M11.95 19.79 C7.58 15.99, 3.21 12.19, -0.13 9.29 M11.95 19.79 C8.84 17.08, 5.73 14.38, -0.13 9.29 M18.35 20.05 C11.53 14.12, 4.71 8.19, 0.23 4.3 M18.35 20.05 C13.78 16.08, 9.21 12.11, 0.23 4.3 M21.73 17.69 C17.36 13.89, 12.99 10.09, 0.59 -0.68 M21.73 17.69 C17.18 13.73, 12.63 9.78, 0.59 -0.68 M22.09 12.7 C18.72 9.77, 15.35 6.85, 6.99 -0.42 M22.09 12.7 C17.31 8.54, 12.52 4.39, 6.99 -0.42 M21.69 7.06 C19.67 5.3, 17.66 3.55, 12.64 -0.82 M21.69 7.06 C19.01 4.72, 16.33 2.39, 12.64 -0.82 M22.05 2.07 C21.41 1.51, 20.76 0.95, 19.03 -0.56 M22.05 2.07 C21.06 1.21, 20.08 0.35, 19.03 -0.56" stroke="#be4bdb" stroke-width="0.5" fill="none"></path><path d="M0 0 C4.07 0, 8.14 0, 20 0 M20 0 C20 5.78, 20 11.57, 20 20 M20 20 C12.17 20, 4.35 20, 0 20 M0 20 C0 14.7, 0 9.4, 0 0" stroke="#000000" stroke-width="1.5" fill="none" stroke-dasharray="8 9"></path></g><g stroke-linecap="round" transform="translate(210 170) rotate(0 10 10)"><path d="M0 0 C0 0, 0 0, 0 0 M0 0 C0 0, 0 0, 0 0 M-0.26 6.4 C1.73 4.11, 3.72 1.81, 4.99 0.36 M-0.26 6.4 C1.14 4.79, 2.53 3.18, 4.99 0.36 M0.13 12.04 C3.41 8.27, 6.69 4.5, 10.63 -0.03 M0.13 12.04 C3.93 7.67, 7.72 3.31, 10.63 -0.03 M-0.13 18.44 C4.78 12.79, 9.7 7.14, 15.62 0.33 M-0.13 18.44 C5.5 11.97, 11.12 5.5, 15.62 0.33 M2.23 21.82 C5.93 17.56, 9.63 13.31, 20.6 0.69 M2.23 21.82 C9.44 13.53, 16.64 5.24, 20.6 0.69 M7.22 22.18 C11.14 17.68, 15.05 13.17, 21 6.33 M7.22 22.18 C11.41 17.36, 15.59 12.55, 21 6.33 M12.86 21.78 C14.52 19.88, 16.18 17.97, 20.74 12.73 M12.86 21.78 C15.32 18.96, 17.78 16.13, 20.74 12.73 M17.85 22.14 C18.75 21.1, 19.66 20.07, 20.48 19.12 M17.85 22.14 C18.39 21.53, 18.92 20.91, 20.48 19.12 M-0.09 19.92 C-0.09 19.92, -0.09 19.92, -0.09 19.92 M-0.09 19.92 C-0.09 19.92, -0.09 19.92, -0.09 19.92 M6.31 20.18 C4.24 18.39, 2.18 16.6, 0.27 14.93 M6.31 20.18 C4.92 18.98, 3.53 17.77, 0.27 14.93 M11.95 19.79 C7.3 15.74, 2.64 11.7, -0.13 9.29 M11.95 19.79 C9.14 17.34, 6.32 14.9, -0.13 9.29 M18.35 20.05 C14.23 16.47, 10.11 12.89, 0.23 4.3 M18.35 20.05 C12.42 14.9, 6.5 9.75, 0.23 4.3 M21.73 17.69 C13.74 10.74, 5.74 3.79, 0.59 -0.68 M21.73 17.69 C17.49 14.01, 13.26 10.33, 0.59 -0.68 M22.09 12.7 C16.74 8.05, 11.39 3.4, 6.99 -0.42 M22.09 12.7 C17.34 8.58, 12.6 4.45, 6.99 -0.42 M21.69 7.06 C18.57 4.34, 15.44 1.62, 12.64 -0.82 M21.69 7.06 C18.18 4, 14.66 0.94, 12.64 -0.82 M22.05 2.07 C20.91 1.08, 19.78 0.09, 19.03 -0.56 M22.05 2.07 C20.89 1.06, 19.74 0.06, 19.03 -0.56" stroke="#fa5252" stroke-width="0.5" fill="none"></path><path d="M0 0 C4.12 0, 8.24 0, 20 0 M20 0 C20 5.88, 20 11.76, 20 20 M20 20 C13.18 20, 6.36 20, 0 20 M0 20 C0 13.9, 0 7.79, 0 0" stroke="#000000" stroke-width="1.5" fill="none" stroke-dasharray="8 9"></path></g><g stroke-linecap="round" transform="translate(50 90) rotate(0 10 10)"><path d="M0 0 C0 0, 0 0, 0 0 M0 0 C0 0, 0 0, 0 0 M-0.26 6.4 C1.34 4.56, 2.94 2.72, 4.99 0.36 M-0.26 6.4 C1.55 4.31, 3.37 2.22, 4.99 0.36 M0.13 12.04 C3.43 8.25, 6.72 4.46, 10.63 -0.03 M0.13 12.04 C4.02 7.57, 7.9 3.1, 10.63 -0.03 M-0.13 18.44 C5.72 11.71, 11.56 4.99, 15.62 0.33 M-0.13 18.44 C6.05 11.34, 12.22 4.23, 15.62 0.33 M2.23 21.82 C5.92 17.58, 9.6 13.35, 20.6 0.69 M2.23 21.82 C6.36 17.08, 10.48 12.34, 20.6 0.69 M7.22 22.18 C10.84 18.01, 14.46 13.85, 21 6.33 M7.22 22.18 C11.84 16.87, 16.45 11.56, 21 6.33 M12.86 21.78 C15.57 18.67, 18.27 15.57, 20.74 12.73 M12.86 21.78 C15.34 18.93, 17.82 16.08, 20.74 12.73 M17.85 22.14 C18.47 21.43, 19.08 20.73, 20.48 19.12 M17.85 22.14 C18.49 21.41, 19.12 20.68, 20.48 19.12 M-0.09 19.92 C-0.09 19.92, -0.09 19.92, -0.09 19.92 M-0.09 19.92 C-0.09 19.92, -0.09 19.92, -0.09 19.92 M6.31 20.18 C4.7 18.78, 3.09 17.39, 0.27 14.93 M6.31 20.18 C4.01 18.19, 1.72 16.19, 0.27 14.93 M11.95 19.79 C7.24 15.69, 2.53 11.6, -0.13 9.29 M11.95 19.79 C8.62 16.89, 5.28 13.99, -0.13 9.29 M18.35 20.05 C11.83 14.38, 5.3 8.71, 0.23 4.3 M18.35 20.05 C12.55 15.01, 6.76 9.98, 0.23 4.3 M21.73 17.69 C13.83 10.82, 5.94 3.96, 0.59 -0.68 M21.73 17.69 C17.25 13.8, 12.78 9.91, 0.59 -0.68 M22.09 12.7 C18.44 9.53, 14.79 6.36, 6.99 -0.42 M22.09 12.7 C18.57 9.64, 15.05 6.59, 6.99 -0.42 M21.69 7.06 C18.31 4.12, 14.93 1.18, 12.64 -0.82 M21.69 7.06 C18.86 4.59, 16.03 2.13, 12.64 -0.82 M22.05 2.07 C21.27 1.39, 20.48 0.7, 19.03 -0.56 M22.05 2.07 C20.87 1.04, 19.68 0.01, 19.03 -0.56" stroke="#fd7e14" stroke-width="0.5" fill="none"></path><path d="M0 0 C7.14 0, 14.28 0, 20 0 M20 0 C20 4.16, 20 8.32, 20 20 M20 20 C15.37 20, 10.73 20, 0 20 M0 20 C0 15.37, 0 10.74, 0 0" stroke="#000000" stroke-width="1.5" fill="none" stroke-dasharray="8 9"></path></g><g stroke-linecap="round" transform="translate(90 90) rotate(0 10 10)"><path d="M0 0 C0 0, 0 0, 0 0 M0 0 C0 0, 0 0, 0 0 M-0.26 6.4 C0.87 5.1, 2 3.8, 4.99 0.36 M-0.26 6.4 C1.15 4.77, 2.56 3.15, 4.99 0.36 M0.13 12.04 C3.51 8.15, 6.89 4.26, 10.63 -0.03 M0.13 12.04 C2.68 9.11, 5.22 6.19, 10.63 -0.03 M-0.13 18.44 C4.69 12.9, 9.51 7.36, 15.62 0.33 M-0.13 18.44 C3.42 14.36, 6.96 10.28, 15.62 0.33 M2.23 21.82 C8.91 14.14, 15.59 6.45, 20.6 0.69 M2.23 21.82 C9.57 13.38, 16.91 4.94, 20.6 0.69 M7.22 22.18 C10.56 18.33, 13.91 14.49, 21 6.33 M7.22 22.18 C12.61 15.98, 17.99 9.78, 21 6.33 M12.86 21.78 C14.65 19.72, 16.44 17.67, 20.74 12.73 M12.86 21.78 C15.5 18.75, 18.14 15.71, 20.74 12.73 M17.85 22.14 C18.43 21.47, 19.01 20.81, 20.48 19.12 M17.85 22.14 C18.49 21.41, 19.12 20.68, 20.48 19.12 M-0.09 19.92 C-0.09 19.92, -0.09 19.92, -0.09 19.92 M-0.09 19.92 C-0.09 19.92, -0.09 19.92, -0.09 19.92 M6.31 20.18 C4.12 18.28, 1.94 16.39, 0.27 14.93 M6.31 20.18 C4.75 18.83, 3.2 17.48, 0.27 14.93 M11.95 19.79 C7.4 15.84, 2.86 11.88, -0.13 9.29 M11.95 19.79 C8.9 17.14, 5.86 14.49, -0.13 9.29 M18.35 20.05 C14.6 16.79, 10.86 13.54, 0.23 4.3 M18.35 20.05 C14.45 16.66, 10.55 13.27, 0.23 4.3 M21.73 17.69 C17.01 13.59, 12.3 9.49, 0.59 -0.68 M21.73 17.69 C15.03 11.87, 8.34 6.05, 0.59 -0.68 M22.09 12.7 C18.72 9.78, 15.36 6.85, 6.99 -0.42 M22.09 12.7 C17.62 8.81, 13.15 4.93, 6.99 -0.42 M21.69 7.06 C19.75 5.37, 17.82 3.69, 12.64 -0.82 M21.69 7.06 C18.73 4.48, 15.77 1.91, 12.64 -0.82 M22.05 2.07 C21.15 1.28, 20.24 0.49, 19.03 -0.56 M22.05 2.07 C20.9 1.06, 19.74 0.06, 19.03 -0.56" stroke="#40c057" stroke-width="0.5" fill="none"></path><path d="M0 0 C7.83 0, 15.65 0, 20 0 M20 0 C20 5.3, 20 10.6, 20 20 M20 20 C12.05 20, 4.11 20, 0 20 M0 20 C0 13.04, 0 6.08, 0 0" stroke="#000000" stroke-width="1.5" fill="none" stroke-dasharray="8 9"></path></g><g stroke-linecap="round" transform="translate(130 90) rotate(0 10 10)"><path d="M0 0 C0 0, 0 0, 0 0 M0 0 C0 0, 0 0, 0 0 M-0.26 6.4 C1.71 4.13, 3.68 1.86, 4.99 0.36 M-0.26 6.4 C0.82 5.15, 1.9 3.91, 4.99 0.36 M0.13 12.04 C2.52 9.29, 4.92 6.54, 10.63 -0.03 M0.13 12.04 C2.4 9.43, 4.67 6.82, 10.63 -0.03 M-0.13 18.44 C5.68 11.76, 11.48 5.08, 15.62 0.33 M-0.13 18.44 C6.02 11.37, 12.17 4.29, 15.62 0.33 M2.23 21.82 C7.53 15.72, 12.83 9.63, 20.6 0.69 M2.23 21.82 C6.64 16.75, 11.04 11.69, 20.6 0.69 M7.22 22.18 C10.45 18.47, 13.67 14.76, 21 6.33 M7.22 22.18 C10.14 18.81, 13.07 15.45, 21 6.33 M12.86 21.78 C15.98 18.2, 19.09 14.62, 20.74 12.73 M12.86 21.78 C15.69 18.53, 18.52 15.27, 20.74 12.73 M17.85 22.14 C18.87 20.97, 19.89 19.8, 20.48 19.12 M17.85 22.14 C18.64 21.23, 19.44 20.32, 20.48 19.12 M-0.09 19.92 C-0.09 19.92, -0.09 19.92, -0.09 19.92 M-0.09 19.92 C-0.09 19.92, -0.09 19.92, -0.09 19.92 M6.31 20.18 C4.66 18.75, 3.02 17.32, 0.27 14.93 M6.31 20.18 C3.94 18.13, 1.57 16.07, 0.27 14.93 M11.95 19.79 C8.49 16.78, 5.03 13.78, -0.13 9.29 M11.95 19.79 C8.14 16.48, 4.34 13.17, -0.13 9.29 M18.35 20.05 C13.85 16.14, 9.36 12.23, 0.23 4.3 M18.35 20.05 C14.43 16.65, 10.52 13.24, 0.23 4.3 M21.73 17.69 C15.99 12.7, 10.25 7.71, 0.59 -0.68 M21.73 17.69 C14.46 11.37, 7.19 5.05, 0.59 -0.68 M22.09 12.7 C17.51 8.72, 12.93 4.74, 6.99 -0.42 M22.09 12.7 C18.92 9.94, 15.75 7.19, 6.99 -0.42 M21.69 7.06 C18.91 4.64, 16.13 2.22, 12.64 -0.82 M21.69 7.06 C19.39 5.05, 17.08 3.05, 12.64 -0.82 M22.05 2.07 C21 1.16, 19.95 0.24, 19.03 -0.56 M22.05 2.07 C21.42 1.52, 20.78 0.96, 19.03 -0.56" stroke="#15aabf" stroke-width="0.5" fill="none"></path><path d="M0 0 C7.02 0, 14.05 0, 20 0 M20 0 C20 6.77, 20 13.55, 20 20 M20 20 C12.75 20, 5.49 20, 0 20 M0 20 C0 15.41, 0 10.83, 0 0" stroke="#000000" stroke-width="1.5" fill="none" stroke-dasharray="8 9"></path></g><g stroke-linecap="round" transform="translate(50 50) rotate(0 10 10)"><path d="M0 0 C0 0, 0 0, 0 0 M0 0 C0 0, 0 0, 0 0 M-0.26 6.4 C0.88 5.09, 2.01 3.78, 4.99 0.36 M-0.26 6.4 C1.45 4.43, 3.17 2.45, 4.99 0.36 M0.13 12.04 C2.93 8.83, 5.72 5.62, 10.63 -0.03 M0.13 12.04 C3.74 7.89, 7.34 3.75, 10.63 -0.03 M-0.13 18.44 C5.88 11.53, 11.89 4.62, 15.62 0.33 M-0.13 18.44 C5.3 12.19, 10.73 5.94, 15.62 0.33 M2.23 21.82 C9.28 13.71, 16.33 5.6, 20.6 0.69 M2.23 21.82 C8.36 14.77, 14.48 7.73, 20.6 0.69 M7.22 22.18 C10.76 18.11, 14.3 14.04, 21 6.33 M7.22 22.18 C11.93 16.76, 16.64 11.34, 21 6.33 M12.86 21.78 C15.49 18.76, 18.12 15.74, 20.74 12.73 M12.86 21.78 C15.23 19.06, 17.6 16.33, 20.74 12.73 M17.85 22.14 C18.85 21, 19.84 19.85, 20.48 19.12 M17.85 22.14 C18.38 21.53, 18.92 20.92, 20.48 19.12 M-0.09 19.92 C-0.09 19.92, -0.09 19.92, -0.09 19.92 M-0.09 19.92 C-0.09 19.92, -0.09 19.92, -0.09 19.92 M6.31 20.18 C5.04 19.08, 3.78 17.99, 0.27 14.93 M6.31 20.18 C5.01 19.05, 3.7 17.92, 0.27 14.93 M11.95 19.79 C8.97 17.2, 5.99 14.61, -0.13 9.29 M11.95 19.79 C8.15 16.48, 4.34 13.17, -0.13 9.29 M18.35 20.05 C14.18 16.43, 10.02 12.81, 0.23 4.3 M18.35 20.05 C11.69 14.26, 5.03 8.47, 0.23 4.3 M21.73 17.69 C16.39 13.05, 11.05 8.4, 0.59 -0.68 M21.73 17.69 C16.15 12.84, 10.57 7.99, 0.59 -0.68 M22.09 12.7 C18.33 9.43, 14.58 6.17, 6.99 -0.42 M22.09 12.7 C18.31 9.42, 14.54 6.14, 6.99 -0.42 M21.69 7.06 C18.29 4.1, 14.9 1.15, 12.64 -0.82 M21.69 7.06 C18.12 3.95, 14.54 0.84, 12.64 -0.82 M22.05 2.07 C21.16 1.29, 20.26 0.51, 19.03 -0.56 M22.05 2.07 C20.98 1.14, 19.91 0.21, 19.03 -0.56" stroke="#fd7e14" stroke-width="0.5" fill="none"></path><path d="M0 0 C5 0, 9.99 0, 20 0 M20 0 C20 5.18, 20 10.36, 20 20 M20 20 C15.03 20, 10.05 20, 0 20 M0 20 C0 13.93, 0 7.87, 0 0" stroke="#000000" stroke-width="1.5" fill="none" stroke-dasharray="8 9"></path></g><g stroke-linecap="round" transform="translate(90 50) rotate(0 10 10)"><path d="M0 0 C0 0, 0 0, 0 0 M0 0 C0 0, 0 0, 0 0 M-0.26 6.4 C1.39 4.5, 3.03 2.61, 4.99 0.36 M-0.26 6.4 C1.68 4.16, 3.62 1.93, 4.99 0.36 M0.13 12.04 C4.03 7.56, 7.93 3.07, 10.63 -0.03 M0.13 12.04 C4.25 7.31, 8.37 2.57, 10.63 -0.03 M-0.13 18.44 C3.03 14.81, 6.18 11.18, 15.62 0.33 M-0.13 18.44 C3.4 14.38, 6.94 10.31, 15.62 0.33 M2.23 21.82 C7.06 16.27, 11.89 10.72, 20.6 0.69 M2.23 21.82 C8.39 14.74, 14.55 7.66, 20.6 0.69 M7.22 22.18 C11.95 16.74, 16.68 11.3, 21 6.33 M7.22 22.18 C11.56 17.19, 15.9 12.2, 21 6.33 M12.86 21.78 C14.71 19.66, 16.56 17.53, 20.74 12.73 M12.86 21.78 C14.77 19.6, 16.67 17.41, 20.74 12.73 M17.85 22.14 C18.7 21.17, 19.54 20.2, 20.48 19.12 M17.85 22.14 C18.76 21.1, 19.67 20.05, 20.48 19.12 M-0.09 19.92 C-0.09 19.92, -0.09 19.92, -0.09 19.92 M-0.09 19.92 C-0.09 19.92, -0.09 19.92, -0.09 19.92 M6.31 20.18 C3.95 18.14, 1.6 16.09, 0.27 14.93 M6.31 20.18 C4.64 18.73, 2.97 17.28, 0.27 14.93 M11.95 19.79 C7.6 16.01, 3.25 12.23, -0.13 9.29 M11.95 19.79 C8.09 16.43, 4.22 13.07, -0.13 9.29 M18.35 20.05 C11.58 14.17, 4.81 8.28, 0.23 4.3 M18.35 20.05 C14.51 16.72, 10.68 13.39, 0.23 4.3 M21.73 17.69 C16.62 13.25, 11.52 8.81, 0.59 -0.68 M21.73 17.69 C16.8 13.41, 11.88 9.13, 0.59 -0.68 M22.09 12.7 C16.45 7.8, 10.82 2.91, 6.99 -0.42 M22.09 12.7 C17.37 8.6, 12.65 4.49, 6.99 -0.42 M21.69 7.06 C19.33 5.01, 16.98 2.96, 12.64 -0.82 M21.69 7.06 C18.14 3.97, 14.59 0.88, 12.64 -0.82 M22.05 2.07 C21.26 1.38, 20.47 0.69, 19.03 -0.56 M22.05 2.07 C21.17 1.31, 20.3 0.54, 19.03 -0.56" stroke="#40c057" stroke-width="0.5" fill="none"></path><path d="M0 0 C4.63 0, 9.27 0, 20 0 M20 0 C20 4.63, 20 9.26, 20 20 M20 20 C14.46 20, 8.92 20, 0 20 M0 20 C0 12.03, 0 4.06, 0 0" stroke="#000000" stroke-width="1.5" fill="none" stroke-dasharray="8 9"></path></g><g stroke-linecap="round" transform="translate(50 10) rotate(0 10 10)"><path d="M0 0 C0 0, 0 0, 0 0 M0 0 C0 0, 0 0, 0 0 M-0.26 6.4 C1.42 4.46, 3.1 2.53, 4.99 0.36 M-0.26 6.4 C1.01 4.93, 2.29 3.46, 4.99 0.36 M0.13 12.04 C4.03 7.56, 7.92 3.08, 10.63 -0.03 M0.13 12.04 C3.58 8.07, 7.03 4.11, 10.63 -0.03 M-0.13 18.44 C4.04 13.65, 8.2 8.86, 15.62 0.33 M-0.13 18.44 C4.91 12.64, 9.95 6.85, 15.62 0.33 M2.23 21.82 C8.88 14.17, 15.53 6.52, 20.6 0.69 M2.23 21.82 C6.88 16.47, 11.53 11.12, 20.6 0.69 M7.22 22.18 C12.16 16.49, 17.1 10.81, 21 6.33 M7.22 22.18 C12.18 16.48, 17.13 10.77, 21 6.33 M12.86 21.78 C14.84 19.52, 16.81 17.25, 20.74 12.73 M12.86 21.78 C14.84 19.51, 16.81 17.24, 20.74 12.73 M17.85 22.14 C18.9 20.94, 19.94 19.74, 20.48 19.12 M17.85 22.14 C18.38 21.54, 18.91 20.93, 20.48 19.12 M-0.09 19.92 C-0.09 19.92, -0.09 19.92, -0.09 19.92 M-0.09 19.92 C-0.09 19.92, -0.09 19.92, -0.09 19.92 M6.31 20.18 C4.91 18.97, 3.52 17.76, 0.27 14.93 M6.31 20.18 C4.46 18.58, 2.62 16.98, 0.27 14.93 M11.95 19.79 C8.84 17.09, 5.74 14.39, -0.13 9.29 M11.95 19.79 C8.46 16.76, 4.98 13.73, -0.13 9.29 M18.35 20.05 C13.73 16.03, 9.11 12.02, 0.23 4.3 M18.35 20.05 C13.67 15.98, 9 11.92, 0.23 4.3 M21.73 17.69 C15.43 12.21, 9.12 6.73, 0.59 -0.68 M21.73 17.69 C13.82 10.81, 5.91 3.93, 0.59 -0.68 M22.09 12.7 C17.24 8.49, 12.4 4.28, 6.99 -0.42 M22.09 12.7 C18.04 9.18, 14 5.67, 6.99 -0.42 M21.69 7.06 C19.14 4.84, 16.59 2.62, 12.64 -0.82 M21.69 7.06 C19.66 5.29, 17.63 3.53, 12.64 -0.82 M22.05 2.07 C21.36 1.46, 20.66 0.86, 19.03 -0.56 M22.05 2.07 C21.25 1.37, 20.44 0.67, 19.03 -0.56" stroke="#fd7e14" stroke-width="0.5" fill="none"></path><path d="M0 0 C7.08 0, 14.16 0, 20 0 M20 0 C20 6.31, 20 12.61, 20 20 M20 20 C14.36 20, 8.72 20, 0 20 M0 20 C0 15.72, 0 11.43, 0 0" stroke="#000000" stroke-width="1.5" fill="none" stroke-dasharray="8 9"></path></g><g transform="translate(10 10) rotate(0 10 10)"><text x="0" y="16" font-family="Cascadia, Segoe UI Emoji" font-size="16px" fill="#000000" text-anchor="start" style="white-space: pre;" direction="ltr">#1</text></g><g transform="translate(10 50) rotate(0 10 10)"><text x="0" y="16" font-family="Cascadia, Segoe UI Emoji" font-size="16px" fill="#000000" text-anchor="start" style="white-space: pre;" direction="ltr">#2</text></g><g transform="translate(10 90) rotate(0 10 10)"><text x="0" y="16" font-family="Cascadia, Segoe UI Emoji" font-size="16px" fill="#000000" text-anchor="start" style="white-space: pre;" direction="ltr">#3</text></g><g transform="translate(10 170) rotate(0 10 10)"><text x="0" y="16" font-family="Cascadia, Segoe UI Emoji" font-size="16px" fill="#000000" text-anchor="start" style="white-space: pre;" direction="ltr">#5</text></g><g transform="translate(10 130) rotate(0 10 10)"><text x="0" y="16" font-family="Cascadia, Segoe UI Emoji" font-size="16px" fill="#000000" text-anchor="start" style="white-space: pre;" direction="ltr">#4</text></g><g transform="translate(50 210) rotate(0 10 10)"><text x="0" y="16" font-family="Cascadia, Segoe UI Emoji" font-size="16px" fill="#000000" text-anchor="start" style="white-space: pre;" direction="ltr">*5</text></g><g transform="translate(130 210) rotate(0 10 10)"><text x="0" y="16" font-family="Cascadia, Segoe UI Emoji" font-size="16px" fill="#000000" text-anchor="start" style="white-space: pre;" direction="ltr">*3</text></g><g transform="translate(210 210) rotate(0 10 10)"><text x="0" y="16" font-family="Cascadia, Segoe UI Emoji" font-size="16px" fill="#000000" text-anchor="start" style="white-space: pre;" direction="ltr">*1</text></g><g transform="translate(170 210) rotate(0 10 10)"><text x="0" y="16" font-family="Cascadia, Segoe UI Emoji" font-size="16px" fill="#000000" text-anchor="start" style="white-space: pre;" direction="ltr">*2</text></g><g transform="translate(90 210) rotate(0 10 10)"><text x="0" y="16" font-family="Cascadia, Segoe UI Emoji" font-size="16px" fill="#000000" text-anchor="start" style="white-space: pre;" direction="ltr">*4</text></g></svg>