<svg version="1.1" xmlns="http://www.w3.org/2000/svg" viewBox="0 0 740 320" width="740" height="320">
  <!-- svg-source:excalidraw -->
  
  <defs>
    <style class="style-fonts">
      @font-face {
        font-family: "Virgil";
        src: url("https://excalidraw.com/Virgil.woff2");
      }
      @font-face {
        font-family: "Cascadia";
        src: url("https://excalidraw.com/Cascadia.woff2");
      }
    </style>
  </defs>
  <rect x="0" y="0" width="740" height="320" fill="#ffffff"></rect><g stroke-linecap="round" transform="translate(110 50) rotate(0 20 20)"><path d="M40 20 C40 21.16, 39.9 22.33, 39.7 23.47 C39.5 24.61, 39.19 25.75, 38.79 26.84 C38.4 27.93, 37.9 29, 37.32 30 C36.74 31, 36.07 31.97, 35.32 32.86 C34.58 33.74, 33.74 34.58, 32.86 35.32 C31.97 36.07, 31 36.74, 30 37.32 C29 37.9, 27.93 38.4, 26.84 38.79 C25.75 39.19, 24.61 39.5, 23.47 39.7 C22.33 39.9, 21.16 40, 20 40 C18.84 40, 17.67 39.9, 16.53 39.7 C15.39 39.5, 14.25 39.19, 13.16 38.79 C12.07 38.4, 11 37.9, 10 37.32 C9 36.74, 8.03 36.07, 7.14 35.32 C6.26 34.58, 5.42 33.74, 4.68 32.86 C3.93 31.97, 3.26 31, 2.68 30 C2.1 29, 1.6 27.93, 1.21 26.84 C0.81 25.75, 0.5 24.61, 0.3 23.47 C0.1 22.33, 0 21.16, 0 20 C0 18.84, 0.1 17.67, 0.3 16.53 C0.5 15.39, 0.81 14.25, 1.21 13.16 C1.6 12.07, 2.1 11, 2.68 10 C3.26 9, 3.93 8.03, 4.68 7.14 C5.42 6.26, 6.26 5.42, 7.14 4.68 C8.03 3.93, 9 3.26, 10 2.68 C11 2.1, 12.07 1.6, 13.16 1.21 C14.25 0.81, 15.39 0.5, 16.53 0.3 C17.67 0.1, 18.84 0, 20 0 C21.16 0, 22.33 0.1, 23.47 0.3 C24.61 0.5, 25.75 0.81, 26.84 1.21 C27.93 1.6, 29 2.1, 30 2.68 C31 3.26, 31.97 3.93, 32.86 4.68 C33.74 5.42, 34.58 6.26, 35.32 7.14 C36.07 8.03, 36.74 9, 37.32 10 C37.9 11, 38.4 12.07, 38.79 13.16 C39.19 14.25, 39.5 15.39, 39.7 16.53 C39.9 17.67, 39.95 19.42, 40 20 C40.05 20.58, 40.05 19.42, 40 20" stroke="#000000" stroke-width="1" fill="none"></path></g><g transform="translate(125 60) rotate(0 5 10)"><text x="5" y="16" font-family="Cascadia, Segoe UI Emoji" font-size="16px" fill="#000000" text-anchor="middle" style="white-space: pre;" direction="ltr">A</text></g><g transform="translate(670 10) rotate(0 24 52)"><text x="0" y="16.8" font-family="Cascadia, Segoe UI Emoji" font-size="16px" fill="#000000" text-anchor="start" style="white-space: pre;" direction="ltr">限制：</text><text x="0" y="37.6" font-family="Cascadia, Segoe UI Emoji" font-size="16px" fill="#000000" text-anchor="start" style="white-space: pre;" direction="ltr">A B C</text><text x="0" y="58.400000000000006" font-family="Cascadia, Segoe UI Emoji" font-size="16px" fill="#000000" text-anchor="start" style="white-space: pre;" direction="ltr">A D G</text><text x="0" y="79.2" font-family="Cascadia, Segoe UI Emoji" font-size="16px" fill="#000000" text-anchor="start" style="white-space: pre;" direction="ltr">B E F</text><text x="0" y="100" font-family="Cascadia, Segoe UI Emoji" font-size="16px" fill="#000000" text-anchor="start" style="white-space: pre;" direction="ltr">C G</text></g><g stroke-linecap="round" transform="translate(210 150) rotate(0 20 20)"><path d="M40 20 C40 21.16, 39.9 22.33, 39.7 23.47 C39.5 24.61, 39.19 25.75, 38.79 26.84 C38.4 27.93, 37.9 29, 37.32 30 C36.74 31, 36.07 31.97, 35.32 32.86 C34.58 33.74, 33.74 34.58, 32.86 35.32 C31.97 36.07, 31 36.74, 30 37.32 C29 37.9, 27.93 38.4, 26.84 38.79 C25.75 39.19, 24.61 39.5, 23.47 39.7 C22.33 39.9, 21.16 40, 20 40 C18.84 40, 17.67 39.9, 16.53 39.7 C15.39 39.5, 14.25 39.19, 13.16 38.79 C12.07 38.4, 11 37.9, 10 37.32 C9 36.74, 8.03 36.07, 7.14 35.32 C6.26 34.58, 5.42 33.74, 4.68 32.86 C3.93 31.97, 3.26 31, 2.68 30 C2.1 29, 1.6 27.93, 1.21 26.84 C0.81 25.75, 0.5 24.61, 0.3 23.47 C0.1 22.33, 0 21.16, 0 20 C0 18.84, 0.1 17.67, 0.3 16.53 C0.5 15.39, 0.81 14.25, 1.21 13.16 C1.6 12.07, 2.1 11, 2.68 10 C3.26 9, 3.93 8.03, 4.68 7.14 C5.42 6.26, 6.26 5.42, 7.14 4.68 C8.03 3.93, 9 3.26, 10 2.68 C11 2.1, 12.07 1.6, 13.16 1.21 C14.25 0.81, 15.39 0.5, 16.53 0.3 C17.67 0.1, 18.84 0, 20 0 C21.16 0, 22.33 0.1, 23.47 0.3 C24.61 0.5, 25.75 0.81, 26.84 1.21 C27.93 1.6, 29 2.1, 30 2.68 C31 3.26, 31.97 3.93, 32.86 4.68 C33.74 5.42, 34.58 6.26, 35.32 7.14 C36.07 8.03, 36.74 9, 37.32 10 C37.9 11, 38.4 12.07, 38.79 13.16 C39.19 14.25, 39.5 15.39, 39.7 16.53 C39.9 17.67, 39.95 19.42, 40 20 C40.05 20.58, 40.05 19.42, 40 20" stroke="#000000" stroke-width="1" fill="none"></path></g><g transform="translate(225 160) rotate(0 5 10)"><text x="5" y="16" font-family="Cascadia, Segoe UI Emoji" font-size="16px" fill="#000000" text-anchor="middle" style="white-space: pre;" direction="ltr">B</text></g><g stroke-linecap="round" transform="translate(290 270) rotate(0 20 20)"><path d="M40 20 C40 21.16, 39.9 22.33, 39.7 23.47 C39.5 24.61, 39.19 25.75, 38.79 26.84 C38.4 27.93, 37.9 29, 37.32 30 C36.74 31, 36.07 31.97, 35.32 32.86 C34.58 33.74, 33.74 34.58, 32.86 35.32 C31.97 36.07, 31 36.74, 30 37.32 C29 37.9, 27.93 38.4, 26.84 38.79 C25.75 39.19, 24.61 39.5, 23.47 39.7 C22.33 39.9, 21.16 40, 20 40 C18.84 40, 17.67 39.9, 16.53 39.7 C15.39 39.5, 14.25 39.19, 13.16 38.79 C12.07 38.4, 11 37.9, 10 37.32 C9 36.74, 8.03 36.07, 7.14 35.32 C6.26 34.58, 5.42 33.74, 4.68 32.86 C3.93 31.97, 3.26 31, 2.68 30 C2.1 29, 1.6 27.93, 1.21 26.84 C0.81 25.75, 0.5 24.61, 0.3 23.47 C0.1 22.33, 0 21.16, 0 20 C0 18.84, 0.1 17.67, 0.3 16.53 C0.5 15.39, 0.81 14.25, 1.21 13.16 C1.6 12.07, 2.1 11, 2.68 10 C3.26 9, 3.93 8.03, 4.68 7.14 C5.42 6.26, 6.26 5.42, 7.14 4.68 C8.03 3.93, 9 3.26, 10 2.68 C11 2.1, 12.07 1.6, 13.16 1.21 C14.25 0.81, 15.39 0.5, 16.53 0.3 C17.67 0.1, 18.84 0, 20 0 C21.16 0, 22.33 0.1, 23.47 0.3 C24.61 0.5, 25.75 0.81, 26.84 1.21 C27.93 1.6, 29 2.1, 30 2.68 C31 3.26, 31.97 3.93, 32.86 4.68 C33.74 5.42, 34.58 6.26, 35.32 7.14 C36.07 8.03, 36.74 9, 37.32 10 C37.9 11, 38.4 12.07, 38.79 13.16 C39.19 14.25, 39.5 15.39, 39.7 16.53 C39.9 17.67, 39.95 19.42, 40 20 C40.05 20.58, 40.05 19.42, 40 20" stroke="#000000" stroke-width="1" fill="none"></path></g><g transform="translate(305 280) rotate(0 5 10)"><text x="5" y="16" font-family="Cascadia, Segoe UI Emoji" font-size="16px" fill="#000000" text-anchor="middle" style="white-space: pre;" direction="ltr">C</text></g><g stroke-linecap="round" transform="translate(290 30) rotate(0 20 20)"><path d="M40 20 C40 21.16, 39.9 22.33, 39.7 23.47 C39.5 24.61, 39.19 25.75, 38.79 26.84 C38.4 27.93, 37.9 29, 37.32 30 C36.74 31, 36.07 31.97, 35.32 32.86 C34.58 33.74, 33.74 34.58, 32.86 35.32 C31.97 36.07, 31 36.74, 30 37.32 C29 37.9, 27.93 38.4, 26.84 38.79 C25.75 39.19, 24.61 39.5, 23.47 39.7 C22.33 39.9, 21.16 40, 20 40 C18.84 40, 17.67 39.9, 16.53 39.7 C15.39 39.5, 14.25 39.19, 13.16 38.79 C12.07 38.4, 11 37.9, 10 37.32 C9 36.74, 8.03 36.07, 7.14 35.32 C6.26 34.58, 5.42 33.74, 4.68 32.86 C3.93 31.97, 3.26 31, 2.68 30 C2.1 29, 1.6 27.93, 1.21 26.84 C0.81 25.75, 0.5 24.61, 0.3 23.47 C0.1 22.33, 0 21.16, 0 20 C0 18.84, 0.1 17.67, 0.3 16.53 C0.5 15.39, 0.81 14.25, 1.21 13.16 C1.6 12.07, 2.1 11, 2.68 10 C3.26 9, 3.93 8.03, 4.68 7.14 C5.42 6.26, 6.26 5.42, 7.14 4.68 C8.03 3.93, 9 3.26, 10 2.68 C11 2.1, 12.07 1.6, 13.16 1.21 C14.25 0.81, 15.39 0.5, 16.53 0.3 C17.67 0.1, 18.84 0, 20 0 C21.16 0, 22.33 0.1, 23.47 0.3 C24.61 0.5, 25.75 0.81, 26.84 1.21 C27.93 1.6, 29 2.1, 30 2.68 C31 3.26, 31.97 3.93, 32.86 4.68 C33.74 5.42, 34.58 6.26, 35.32 7.14 C36.07 8.03, 36.74 9, 37.32 10 C37.9 11, 38.4 12.07, 38.79 13.16 C39.19 14.25, 39.5 15.39, 39.7 16.53 C39.9 17.67, 39.95 19.42, 40 20 C40.05 20.58, 40.05 19.42, 40 20" stroke="#000000" stroke-width="1" fill="none"></path></g><g transform="translate(305 40) rotate(0 5 10)"><text x="5" y="16" font-family="Cascadia, Segoe UI Emoji" font-size="16px" fill="#000000" text-anchor="middle" style="white-space: pre;" direction="ltr">D</text></g><g stroke-linecap="round" transform="translate(450 110) rotate(0 20 20)"><path d="M40 20 C40 21.16, 39.9 22.33, 39.7 23.47 C39.5 24.61, 39.19 25.75, 38.79 26.84 C38.4 27.93, 37.9 29, 37.32 30 C36.74 31, 36.07 31.97, 35.32 32.86 C34.58 33.74, 33.74 34.58, 32.86 35.32 C31.97 36.07, 31 36.74, 30 37.32 C29 37.9, 27.93 38.4, 26.84 38.79 C25.75 39.19, 24.61 39.5, 23.47 39.7 C22.33 39.9, 21.16 40, 20 40 C18.84 40, 17.67 39.9, 16.53 39.7 C15.39 39.5, 14.25 39.19, 13.16 38.79 C12.07 38.4, 11 37.9, 10 37.32 C9 36.74, 8.03 36.07, 7.14 35.32 C6.26 34.58, 5.42 33.74, 4.68 32.86 C3.93 31.97, 3.26 31, 2.68 30 C2.1 29, 1.6 27.93, 1.21 26.84 C0.81 25.75, 0.5 24.61, 0.3 23.47 C0.1 22.33, 0 21.16, 0 20 C0 18.84, 0.1 17.67, 0.3 16.53 C0.5 15.39, 0.81 14.25, 1.21 13.16 C1.6 12.07, 2.1 11, 2.68 10 C3.26 9, 3.93 8.03, 4.68 7.14 C5.42 6.26, 6.26 5.42, 7.14 4.68 C8.03 3.93, 9 3.26, 10 2.68 C11 2.1, 12.07 1.6, 13.16 1.21 C14.25 0.81, 15.39 0.5, 16.53 0.3 C17.67 0.1, 18.84 0, 20 0 C21.16 0, 22.33 0.1, 23.47 0.3 C24.61 0.5, 25.75 0.81, 26.84 1.21 C27.93 1.6, 29 2.1, 30 2.68 C31 3.26, 31.97 3.93, 32.86 4.68 C33.74 5.42, 34.58 6.26, 35.32 7.14 C36.07 8.03, 36.74 9, 37.32 10 C37.9 11, 38.4 12.07, 38.79 13.16 C39.19 14.25, 39.5 15.39, 39.7 16.53 C39.9 17.67, 39.95 19.42, 40 20 C40.05 20.58, 40.05 19.42, 40 20" stroke="#000000" stroke-width="1" fill="none"></path></g><g transform="translate(465 120) rotate(0 5 10)"><text x="5" y="16" font-family="Cascadia, Segoe UI Emoji" font-size="16px" fill="#000000" text-anchor="middle" style="white-space: pre;" direction="ltr">E</text></g><g stroke-linecap="round" transform="translate(590 110) rotate(0 20 20)"><path d="M40 20 C40 21.16, 39.9 22.33, 39.7 23.47 C39.5 24.61, 39.19 25.75, 38.79 26.84 C38.4 27.93, 37.9 29, 37.32 30 C36.74 31, 36.07 31.97, 35.32 32.86 C34.58 33.74, 33.74 34.58, 32.86 35.32 C31.97 36.07, 31 36.74, 30 37.32 C29 37.9, 27.93 38.4, 26.84 38.79 C25.75 39.19, 24.61 39.5, 23.47 39.7 C22.33 39.9, 21.16 40, 20 40 C18.84 40, 17.67 39.9, 16.53 39.7 C15.39 39.5, 14.25 39.19, 13.16 38.79 C12.07 38.4, 11 37.9, 10 37.32 C9 36.74, 8.03 36.07, 7.14 35.32 C6.26 34.58, 5.42 33.74, 4.68 32.86 C3.93 31.97, 3.26 31, 2.68 30 C2.1 29, 1.6 27.93, 1.21 26.84 C0.81 25.75, 0.5 24.61, 0.3 23.47 C0.1 22.33, 0 21.16, 0 20 C0 18.84, 0.1 17.67, 0.3 16.53 C0.5 15.39, 0.81 14.25, 1.21 13.16 C1.6 12.07, 2.1 11, 2.68 10 C3.26 9, 3.93 8.03, 4.68 7.14 C5.42 6.26, 6.26 5.42, 7.14 4.68 C8.03 3.93, 9 3.26, 10 2.68 C11 2.1, 12.07 1.6, 13.16 1.21 C14.25 0.81, 15.39 0.5, 16.53 0.3 C17.67 0.1, 18.84 0, 20 0 C21.16 0, 22.33 0.1, 23.47 0.3 C24.61 0.5, 25.75 0.81, 26.84 1.21 C27.93 1.6, 29 2.1, 30 2.68 C31 3.26, 31.97 3.93, 32.86 4.68 C33.74 5.42, 34.58 6.26, 35.32 7.14 C36.07 8.03, 36.74 9, 37.32 10 C37.9 11, 38.4 12.07, 38.79 13.16 C39.19 14.25, 39.5 15.39, 39.7 16.53 C39.9 17.67, 39.95 19.42, 40 20 C40.05 20.58, 40.05 19.42, 40 20" stroke="#000000" stroke-width="1" fill="none"></path></g><g transform="translate(605 120) rotate(0 5 10)"><text x="5" y="16" font-family="Cascadia, Segoe UI Emoji" font-size="16px" fill="#000000" text-anchor="middle" style="white-space: pre;" direction="ltr">F</text></g><g stroke-linecap="round" transform="translate(390 190) rotate(0 20 20)"><path d="M40 20 C40 21.16, 39.9 22.33, 39.7 23.47 C39.5 24.61, 39.19 25.75, 38.79 26.84 C38.4 27.93, 37.9 29, 37.32 30 C36.74 31, 36.07 31.97, 35.32 32.86 C34.58 33.74, 33.74 34.58, 32.86 35.32 C31.97 36.07, 31 36.74, 30 37.32 C29 37.9, 27.93 38.4, 26.84 38.79 C25.75 39.19, 24.61 39.5, 23.47 39.7 C22.33 39.9, 21.16 40, 20 40 C18.84 40, 17.67 39.9, 16.53 39.7 C15.39 39.5, 14.25 39.19, 13.16 38.79 C12.07 38.4, 11 37.9, 10 37.32 C9 36.74, 8.03 36.07, 7.14 35.32 C6.26 34.58, 5.42 33.74, 4.68 32.86 C3.93 31.97, 3.26 31, 2.68 30 C2.1 29, 1.6 27.93, 1.21 26.84 C0.81 25.75, 0.5 24.61, 0.3 23.47 C0.1 22.33, 0 21.16, 0 20 C0 18.84, 0.1 17.67, 0.3 16.53 C0.5 15.39, 0.81 14.25, 1.21 13.16 C1.6 12.07, 2.1 11, 2.68 10 C3.26 9, 3.93 8.03, 4.68 7.14 C5.42 6.26, 6.26 5.42, 7.14 4.68 C8.03 3.93, 9 3.26, 10 2.68 C11 2.1, 12.07 1.6, 13.16 1.21 C14.25 0.81, 15.39 0.5, 16.53 0.3 C17.67 0.1, 18.84 0, 20 0 C21.16 0, 22.33 0.1, 23.47 0.3 C24.61 0.5, 25.75 0.81, 26.84 1.21 C27.93 1.6, 29 2.1, 30 2.68 C31 3.26, 31.97 3.93, 32.86 4.68 C33.74 5.42, 34.58 6.26, 35.32 7.14 C36.07 8.03, 36.74 9, 37.32 10 C37.9 11, 38.4 12.07, 38.79 13.16 C39.19 14.25, 39.5 15.39, 39.7 16.53 C39.9 17.67, 39.95 19.42, 40 20 C40.05 20.58, 40.05 19.42, 40 20" stroke="#000000" stroke-width="1" fill="none"></path></g><g transform="translate(405 200) rotate(0 5 10)"><text x="5" y="16" font-family="Cascadia, Segoe UI Emoji" font-size="16px" fill="#000000" text-anchor="middle" style="white-space: pre;" direction="ltr">G</text></g><g stroke-linecap="round" transform="translate(10 110) rotate(0 20 20)"><path d="M40 20 C40 21.16, 39.9 22.33, 39.7 23.47 C39.5 24.61, 39.19 25.75, 38.79 26.84 C38.4 27.93, 37.9 29, 37.32 30 C36.74 31, 36.07 31.97, 35.32 32.86 C34.58 33.74, 33.74 34.58, 32.86 35.32 C31.97 36.07, 31 36.74, 30 37.32 C29 37.9, 27.93 38.4, 26.84 38.79 C25.75 39.19, 24.61 39.5, 23.47 39.7 C22.33 39.9, 21.16 40, 20 40 C18.84 40, 17.67 39.9, 16.53 39.7 C15.39 39.5, 14.25 39.19, 13.16 38.79 C12.07 38.4, 11 37.9, 10 37.32 C9 36.74, 8.03 36.07, 7.14 35.32 C6.26 34.58, 5.42 33.74, 4.68 32.86 C3.93 31.97, 3.26 31, 2.68 30 C2.1 29, 1.6 27.93, 1.21 26.84 C0.81 25.75, 0.5 24.61, 0.3 23.47 C0.1 22.33, 0 21.16, 0 20 C0 18.84, 0.1 17.67, 0.3 16.53 C0.5 15.39, 0.81 14.25, 1.21 13.16 C1.6 12.07, 2.1 11, 2.68 10 C3.26 9, 3.93 8.03, 4.68 7.14 C5.42 6.26, 6.26 5.42, 7.14 4.68 C8.03 3.93, 9 3.26, 10 2.68 C11 2.1, 12.07 1.6, 13.16 1.21 C14.25 0.81, 15.39 0.5, 16.53 0.3 C17.67 0.1, 18.84 0, 20 0 C21.16 0, 22.33 0.1, 23.47 0.3 C24.61 0.5, 25.75 0.81, 26.84 1.21 C27.93 1.6, 29 2.1, 30 2.68 C31 3.26, 31.97 3.93, 32.86 4.68 C33.74 5.42, 34.58 6.26, 35.32 7.14 C36.07 8.03, 36.74 9, 37.32 10 C37.9 11, 38.4 12.07, 38.79 13.16 C39.19 14.25, 39.5 15.39, 39.7 16.53 C39.9 17.67, 39.95 19.42, 40 20 C40.05 20.58, 40.05 19.42, 40 20" stroke="#000000" stroke-width="1" fill="none"></path></g><g transform="translate(25 120) rotate(0 5 10)"><text x="5" y="16" font-family="Cascadia, Segoe UI Emoji" font-size="16px" fill="#000000" text-anchor="middle" style="white-space: pre;" direction="ltr">S</text></g><g stroke-linecap="round" transform="translate(690 210) rotate(0 20 20)"><path d="M40 20 C40 21.16, 39.9 22.33, 39.7 23.47 C39.5 24.61, 39.19 25.75, 38.79 26.84 C38.4 27.93, 37.9 29, 37.32 30 C36.74 31, 36.07 31.97, 35.32 32.86 C34.58 33.74, 33.74 34.58, 32.86 35.32 C31.97 36.07, 31 36.74, 30 37.32 C29 37.9, 27.93 38.4, 26.84 38.79 C25.75 39.19, 24.61 39.5, 23.47 39.7 C22.33 39.9, 21.16 40, 20 40 C18.84 40, 17.67 39.9, 16.53 39.7 C15.39 39.5, 14.25 39.19, 13.16 38.79 C12.07 38.4, 11 37.9, 10 37.32 C9 36.74, 8.03 36.07, 7.14 35.32 C6.26 34.58, 5.42 33.74, 4.68 32.86 C3.93 31.97, 3.26 31, 2.68 30 C2.1 29, 1.6 27.93, 1.21 26.84 C0.81 25.75, 0.5 24.61, 0.3 23.47 C0.1 22.33, 0 21.16, 0 20 C0 18.84, 0.1 17.67, 0.3 16.53 C0.5 15.39, 0.81 14.25, 1.21 13.16 C1.6 12.07, 2.1 11, 2.68 10 C3.26 9, 3.93 8.03, 4.68 7.14 C5.42 6.26, 6.26 5.42, 7.14 4.68 C8.03 3.93, 9 3.26, 10 2.68 C11 2.1, 12.07 1.6, 13.16 1.21 C14.25 0.81, 15.39 0.5, 16.53 0.3 C17.67 0.1, 18.84 0, 20 0 C21.16 0, 22.33 0.1, 23.47 0.3 C24.61 0.5, 25.75 0.81, 26.84 1.21 C27.93 1.6, 29 2.1, 30 2.68 C31 3.26, 31.97 3.93, 32.86 4.68 C33.74 5.42, 34.58 6.26, 35.32 7.14 C36.07 8.03, 36.74 9, 37.32 10 C37.9 11, 38.4 12.07, 38.79 13.16 C39.19 14.25, 39.5 15.39, 39.7 16.53 C39.9 17.67, 39.95 19.42, 40 20 C40.05 20.58, 40.05 19.42, 40 20" stroke="#000000" stroke-width="1" fill="none"></path></g><g transform="translate(705 220) rotate(0 5 10)"><text x="5" y="16" font-family="Cascadia, Segoe UI Emoji" font-size="16px" fill="#000000" text-anchor="middle" style="white-space: pre;" direction="ltr">T</text></g><g stroke-linecap="round"><g transform="translate(30 130) rotate(0 340 50.28809329818948)"><path d="M0 0 C16.67 -10, 66.67 -66.67, 100 -60 C133.33 -53.33, 170 3.33, 200 40 C230 76.67, 200 150, 280 160 C360 170, 613.33 110, 680 100 M0 0 C16.67 -10, 66.67 -66.67, 100 -60 C133.33 -53.33, 170 3.33, 200 40 C230 76.67, 200 150, 280 160 C360 170, 613.33 110, 680 100" stroke="#c92a2a" stroke-width="1" fill="none"></path></g></g><mask></mask><g stroke-linecap="round"><g transform="translate(30 130) rotate(0 340 5.779316779778725)"><path d="M0 0 C16.67 -10, 53.33 -46.67, 100 -60 C146.67 -73.33, 233.33 -103.33, 280 -80 C326.67 -56.67, 313.33 50, 380 80 C446.67 110, 630 96.67, 680 100 M0 0 C16.67 -10, 53.33 -46.67, 100 -60 C146.67 -73.33, 233.33 -103.33, 280 -80 C326.67 -56.67, 313.33 50, 380 80 C446.67 110, 630 96.67, 680 100" stroke="#364fc7" stroke-width="1" fill="none"></path></g></g><mask></mask><g stroke-linecap="round"><g transform="translate(30 130) rotate(0 340 45.43954403591471)"><path d="M0 0 C33.33 6.67, 126.67 40, 200 40 C273.33 40, 376.67 6.67, 440 0 C503.33 -6.67, 540 -16.67, 580 0 C620 16.67, 663.33 83.33, 680 100 M0 0 C33.33 6.67, 126.67 40, 200 40 C273.33 40, 376.67 6.67, 440 0 C503.33 -6.67, 540 -16.67, 580 0 C620 16.67, 663.33 83.33, 680 100" stroke="#5c940d" stroke-width="1" fill="none"></path></g></g><mask></mask><g stroke-linecap="round"><g transform="translate(30 130) rotate(0 340 80.72043206112257)"><path d="M0 0 C46.67 26.67, 216.67 146.67, 280 160 C343.33 173.33, 313.33 90, 380 80 C446.67 70, 630 96.67, 680 100 M0 0 C46.67 26.67, 216.67 146.67, 280 160 C343.33 173.33, 313.33 90, 380 80 C446.67 70, 630 96.67, 680 100" stroke="#e67700" stroke-width="1" fill="none"></path></g></g><mask></mask></svg>