<svg version="1.1" xmlns="http://www.w3.org/2000/svg" viewBox="0 0 1100 540" width="1100" height="540">
  <!-- svg-source:excalidraw -->
  
  <defs>
    <style class="style-fonts">
      @font-face {
        font-family: "Virgil";
        src: url("https://excalidraw.com/Virgil.woff2");
      }
      @font-face {
        font-family: "Cascadia";
        src: url("https://excalidraw.com/Cascadia.woff2");
      }
    </style>
  </defs>
  <rect x="0" y="0" width="1100" height="540" fill="#ffffff"></rect><g stroke-linecap="round" transform="translate(530 250) rotate(0 20 20)"><path d="M40 20 C40 21.16, 39.9 22.33, 39.7 23.47 C39.5 24.61, 39.19 25.75, 38.79 26.84 C38.4 27.93, 37.9 29, 37.32 30 C36.74 31, 36.07 31.97, 35.32 32.86 C34.58 33.74, 33.74 34.58, 32.86 35.32 C31.97 36.07, 31 36.74, 30 37.32 C29 37.9, 27.93 38.4, 26.84 38.79 C25.75 39.19, 24.61 39.5, 23.47 39.7 C22.33 39.9, 21.16 40, 20 40 C18.84 40, 17.67 39.9, 16.53 39.7 C15.39 39.5, 14.25 39.19, 13.16 38.79 C12.07 38.4, 11 37.9, 10 37.32 C9 36.74, 8.03 36.07, 7.14 35.32 C6.26 34.58, 5.42 33.74, 4.68 32.86 C3.93 31.97, 3.26 31, 2.68 30 C2.1 29, 1.6 27.93, 1.21 26.84 C0.81 25.75, 0.5 24.61, 0.3 23.47 C0.1 22.33, 0 21.16, 0 20 C0 18.84, 0.1 17.67, 0.3 16.53 C0.5 15.39, 0.81 14.25, 1.21 13.16 C1.6 12.07, 2.1 11, 2.68 10 C3.26 9, 3.93 8.03, 4.68 7.14 C5.42 6.26, 6.26 5.42, 7.14 4.68 C8.03 3.93, 9 3.26, 10 2.68 C11 2.1, 12.07 1.6, 13.16 1.21 C14.25 0.81, 15.39 0.5, 16.53 0.3 C17.67 0.1, 18.84 0, 20 0 C21.16 0, 22.33 0.1, 23.47 0.3 C24.61 0.5, 25.75 0.81, 26.84 1.21 C27.93 1.6, 29 2.1, 30 2.68 C31 3.26, 31.97 3.93, 32.86 4.68 C33.74 5.42, 34.58 6.26, 35.32 7.14 C36.07 8.03, 36.74 9, 37.32 10 C37.9 11, 38.4 12.07, 38.79 13.16 C39.19 14.25, 39.5 15.39, 39.7 16.53 C39.9 17.67, 39.95 19.42, 40 20 C40.05 20.58, 40.05 19.42, 40 20" stroke="#000000" stroke-width="1" fill="none"></path></g><g transform="translate(545 260) rotate(0 5 10)"><text x="5" y="16" font-family="Cascadia, Segoe UI Emoji" font-size="16px" fill="#000000" text-anchor="middle" style="white-space: pre;" direction="ltr">i</text></g><g stroke-linecap="round" transform="translate(1050 250) rotate(0 20 20)"><path d="M40 20 C40 21.16, 39.9 22.33, 39.7 23.47 C39.5 24.61, 39.19 25.75, 38.79 26.84 C38.4 27.93, 37.9 29, 37.32 30 C36.74 31, 36.07 31.97, 35.32 32.86 C34.58 33.74, 33.74 34.58, 32.86 35.32 C31.97 36.07, 31 36.74, 30 37.32 C29 37.9, 27.93 38.4, 26.84 38.79 C25.75 39.19, 24.61 39.5, 23.47 39.7 C22.33 39.9, 21.16 40, 20 40 C18.84 40, 17.67 39.9, 16.53 39.7 C15.39 39.5, 14.25 39.19, 13.16 38.79 C12.07 38.4, 11 37.9, 10 37.32 C9 36.74, 8.03 36.07, 7.14 35.32 C6.26 34.58, 5.42 33.74, 4.68 32.86 C3.93 31.97, 3.26 31, 2.68 30 C2.1 29, 1.6 27.93, 1.21 26.84 C0.81 25.75, 0.5 24.61, 0.3 23.47 C0.1 22.33, 0 21.16, 0 20 C0 18.84, 0.1 17.67, 0.3 16.53 C0.5 15.39, 0.81 14.25, 1.21 13.16 C1.6 12.07, 2.1 11, 2.68 10 C3.26 9, 3.93 8.03, 4.68 7.14 C5.42 6.26, 6.26 5.42, 7.14 4.68 C8.03 3.93, 9 3.26, 10 2.68 C11 2.1, 12.07 1.6, 13.16 1.21 C14.25 0.81, 15.39 0.5, 16.53 0.3 C17.67 0.1, 18.84 0, 20 0 C21.16 0, 22.33 0.1, 23.47 0.3 C24.61 0.5, 25.75 0.81, 26.84 1.21 C27.93 1.6, 29 2.1, 30 2.68 C31 3.26, 31.97 3.93, 32.86 4.68 C33.74 5.42, 34.58 6.26, 35.32 7.14 C36.07 8.03, 36.74 9, 37.32 10 C37.9 11, 38.4 12.07, 38.79 13.16 C39.19 14.25, 39.5 15.39, 39.7 16.53 C39.9 17.67, 39.95 19.42, 40 20 C40.05 20.58, 40.05 19.42, 40 20" stroke="#000000" stroke-width="1" fill="none"></path></g><g transform="translate(1065 260) rotate(0 5 10)"><text x="5" y="16" font-family="Cascadia, Segoe UI Emoji" font-size="16px" fill="#000000" text-anchor="middle" style="white-space: pre;" direction="ltr">t</text></g><g stroke-linecap="round" transform="translate(790 10) rotate(0 20 20)"><path d="M40 20 C40 21.16, 39.9 22.33, 39.7 23.47 C39.5 24.61, 39.19 25.75, 38.79 26.84 C38.4 27.93, 37.9 29, 37.32 30 C36.74 31, 36.07 31.97, 35.32 32.86 C34.58 33.74, 33.74 34.58, 32.86 35.32 C31.97 36.07, 31 36.74, 30 37.32 C29 37.9, 27.93 38.4, 26.84 38.79 C25.75 39.19, 24.61 39.5, 23.47 39.7 C22.33 39.9, 21.16 40, 20 40 C18.84 40, 17.67 39.9, 16.53 39.7 C15.39 39.5, 14.25 39.19, 13.16 38.79 C12.07 38.4, 11 37.9, 10 37.32 C9 36.74, 8.03 36.07, 7.14 35.32 C6.26 34.58, 5.42 33.74, 4.68 32.86 C3.93 31.97, 3.26 31, 2.68 30 C2.1 29, 1.6 27.93, 1.21 26.84 C0.81 25.75, 0.5 24.61, 0.3 23.47 C0.1 22.33, 0 21.16, 0 20 C0 18.84, 0.1 17.67, 0.3 16.53 C0.5 15.39, 0.81 14.25, 1.21 13.16 C1.6 12.07, 2.1 11, 2.68 10 C3.26 9, 3.93 8.03, 4.68 7.14 C5.42 6.26, 6.26 5.42, 7.14 4.68 C8.03 3.93, 9 3.26, 10 2.68 C11 2.1, 12.07 1.6, 13.16 1.21 C14.25 0.81, 15.39 0.5, 16.53 0.3 C17.67 0.1, 18.84 0, 20 0 C21.16 0, 22.33 0.1, 23.47 0.3 C24.61 0.5, 25.75 0.81, 26.84 1.21 C27.93 1.6, 29 2.1, 30 2.68 C31 3.26, 31.97 3.93, 32.86 4.68 C33.74 5.42, 34.58 6.26, 35.32 7.14 C36.07 8.03, 36.74 9, 37.32 10 C37.9 11, 38.4 12.07, 38.79 13.16 C39.19 14.25, 39.5 15.39, 39.7 16.53 C39.9 17.67, 39.95 19.42, 40 20 C40.05 20.58, 40.05 19.42, 40 20" stroke="#000000" stroke-width="1" fill="none"></path></g><g stroke-linecap="round" transform="translate(790 250) rotate(0 20 20)"><path d="M40 20 C40 21.16, 39.9 22.33, 39.7 23.47 C39.5 24.61, 39.19 25.75, 38.79 26.84 C38.4 27.93, 37.9 29, 37.32 30 C36.74 31, 36.07 31.97, 35.32 32.86 C34.58 33.74, 33.74 34.58, 32.86 35.32 C31.97 36.07, 31 36.74, 30 37.32 C29 37.9, 27.93 38.4, 26.84 38.79 C25.75 39.19, 24.61 39.5, 23.47 39.7 C22.33 39.9, 21.16 40, 20 40 C18.84 40, 17.67 39.9, 16.53 39.7 C15.39 39.5, 14.25 39.19, 13.16 38.79 C12.07 38.4, 11 37.9, 10 37.32 C9 36.74, 8.03 36.07, 7.14 35.32 C6.26 34.58, 5.42 33.74, 4.68 32.86 C3.93 31.97, 3.26 31, 2.68 30 C2.1 29, 1.6 27.93, 1.21 26.84 C0.81 25.75, 0.5 24.61, 0.3 23.47 C0.1 22.33, 0 21.16, 0 20 C0 18.84, 0.1 17.67, 0.3 16.53 C0.5 15.39, 0.81 14.25, 1.21 13.16 C1.6 12.07, 2.1 11, 2.68 10 C3.26 9, 3.93 8.03, 4.68 7.14 C5.42 6.26, 6.26 5.42, 7.14 4.68 C8.03 3.93, 9 3.26, 10 2.68 C11 2.1, 12.07 1.6, 13.16 1.21 C14.25 0.81, 15.39 0.5, 16.53 0.3 C17.67 0.1, 18.84 0, 20 0 C21.16 0, 22.33 0.1, 23.47 0.3 C24.61 0.5, 25.75 0.81, 26.84 1.21 C27.93 1.6, 29 2.1, 30 2.68 C31 3.26, 31.97 3.93, 32.86 4.68 C33.74 5.42, 34.58 6.26, 35.32 7.14 C36.07 8.03, 36.74 9, 37.32 10 C37.9 11, 38.4 12.07, 38.79 13.16 C39.19 14.25, 39.5 15.39, 39.7 16.53 C39.9 17.67, 39.95 19.42, 40 20 C40.05 20.58, 40.05 19.42, 40 20" stroke="#000000" stroke-width="1" fill="none"></path></g><g stroke-linecap="round" transform="translate(790 490) rotate(0 20 20)"><path d="M40 20 C40 21.16, 39.9 22.33, 39.7 23.47 C39.5 24.61, 39.19 25.75, 38.79 26.84 C38.4 27.93, 37.9 29, 37.32 30 C36.74 31, 36.07 31.97, 35.32 32.86 C34.58 33.74, 33.74 34.58, 32.86 35.32 C31.97 36.07, 31 36.74, 30 37.32 C29 37.9, 27.93 38.4, 26.84 38.79 C25.75 39.19, 24.61 39.5, 23.47 39.7 C22.33 39.9, 21.16 40, 20 40 C18.84 40, 17.67 39.9, 16.53 39.7 C15.39 39.5, 14.25 39.19, 13.16 38.79 C12.07 38.4, 11 37.9, 10 37.32 C9 36.74, 8.03 36.07, 7.14 35.32 C6.26 34.58, 5.42 33.74, 4.68 32.86 C3.93 31.97, 3.26 31, 2.68 30 C2.1 29, 1.6 27.93, 1.21 26.84 C0.81 25.75, 0.5 24.61, 0.3 23.47 C0.1 22.33, 0 21.16, 0 20 C0 18.84, 0.1 17.67, 0.3 16.53 C0.5 15.39, 0.81 14.25, 1.21 13.16 C1.6 12.07, 2.1 11, 2.68 10 C3.26 9, 3.93 8.03, 4.68 7.14 C5.42 6.26, 6.26 5.42, 7.14 4.68 C8.03 3.93, 9 3.26, 10 2.68 C11 2.1, 12.07 1.6, 13.16 1.21 C14.25 0.81, 15.39 0.5, 16.53 0.3 C17.67 0.1, 18.84 0, 20 0 C21.16 0, 22.33 0.1, 23.47 0.3 C24.61 0.5, 25.75 0.81, 26.84 1.21 C27.93 1.6, 29 2.1, 30 2.68 C31 3.26, 31.97 3.93, 32.86 4.68 C33.74 5.42, 34.58 6.26, 35.32 7.14 C36.07 8.03, 36.74 9, 37.32 10 C37.9 11, 38.4 12.07, 38.79 13.16 C39.19 14.25, 39.5 15.39, 39.7 16.53 C39.9 17.67, 39.95 19.42, 40 20 C40.05 20.58, 40.05 19.42, 40 20" stroke="#000000" stroke-width="1" fill="none"></path></g><g stroke-linecap="round"><g transform="translate(569.2629194921284 249.28913491329297) rotate(0 110.73708050787155 -99.289134913293)"><path d="M0 0 C62.32 -55.88, 124.64 -111.76, 221.47 -198.58 M0 0 C76.31 -68.42, 152.62 -136.85, 221.47 -198.58" stroke="#000000" stroke-width="1" fill="none"></path></g><g transform="translate(569.2629194921284 249.28913491329297) rotate(0 110.73708050787155 -99.289134913293)"><path d="M221.47 -198.58 L215.58 -184.78 L207.12 -194.22 L221.47 -198.58" stroke="none" stroke-width="0" fill="#000000" fill-rule="evenodd"></path><path d="M221.47 -198.58 C219.82 -194.7, 218.16 -190.81, 215.58 -184.78 M221.47 -198.58 C219.44 -193.82, 217.42 -189.07, 215.58 -184.78 M215.58 -184.78 C213.04 -187.63, 210.49 -190.47, 207.12 -194.22 M215.58 -184.78 C212.32 -188.43, 209.05 -192.07, 207.12 -194.22 M207.12 -194.22 C212.42 -195.83, 217.71 -197.44, 221.47 -198.58 M207.12 -194.22 C212.8 -195.95, 218.47 -197.67, 221.47 -198.58 M221.47 -198.58 C221.47 -198.58, 221.47 -198.58, 221.47 -198.58 M221.47 -198.58 C221.47 -198.58, 221.47 -198.58, 221.47 -198.58" stroke="#000000" stroke-width="1" fill="none"></path></g></g><mask></mask><g stroke-linecap="round"><g transform="translate(571 270) rotate(0 109 0)"><path d="M0 0 C44.67 0, 89.34 0, 218 0 M0 0 C62.81 0, 125.63 0, 218 0" stroke="#000000" stroke-width="1" fill="none"></path></g><g transform="translate(571 270) rotate(0 109 0)"><path d="M218 0 L204.41 6.34 L204.41 -6.34 L218 0" stroke="none" stroke-width="0" fill="#000000" fill-rule="evenodd"></path><path d="M218 0 C215.21 1.3, 212.43 2.6, 204.41 6.34 M218 0 C214.08 1.83, 210.17 3.65, 204.41 6.34 M204.41 6.34 C204.41 2.03, 204.41 -2.29, 204.41 -6.34 M204.41 6.34 C204.41 3.22, 204.41 0.1, 204.41 -6.34 M204.41 -6.34 C209.01 -4.19, 213.61 -2.05, 218 0 M204.41 -6.34 C208.05 -4.64, 211.7 -2.94, 218 0 M218 0 C218 0, 218 0, 218 0 M218 0 C218 0, 218 0, 218 0" stroke="#000000" stroke-width="1" fill="none"></path></g></g><mask></mask><g stroke-linecap="round"><g transform="translate(830 50) rotate(0 110 100)"><path d="M0 0 C78.59 71.44, 157.18 142.89, 220 200 M0 0 C44.17 40.16, 88.34 80.31, 220 200" stroke="#c92a2a" stroke-width="4" fill="none"></path></g><g transform="translate(830 50) rotate(0 110 100)"><path d="M220 200 L205.68 195.55 L214.21 186.16 L220 200" stroke="none" stroke-width="0" fill="#c92a2a" fill-rule="evenodd"></path><path d="M220 200 C214.88 198.41, 209.77 196.82, 205.68 195.55 M220 200 C217.12 199.11, 214.25 198.21, 205.68 195.55 M205.68 195.55 C208.98 191.91, 212.29 188.27, 214.21 186.16 M205.68 195.55 C207.92 193.08, 210.17 190.61, 214.21 186.16 M214.21 186.16 C215.44 189.11, 216.67 192.05, 220 200 M214.21 186.16 C215.82 190.02, 217.44 193.88, 220 200 M220 200 C220 200, 220 200, 220 200 M220 200 C220 200, 220 200, 220 200" stroke="#c92a2a" stroke-width="4" fill="none"></path></g></g><mask></mask><g stroke-linecap="round"><g transform="translate(830 270) rotate(0 110 0)"><path d="M0 0 C85.61 0, 171.22 0, 220 0 M0 0 C70.52 0, 141.03 0, 220 0" stroke="#c92a2a" stroke-width="4" fill="none"></path></g><g transform="translate(830 270) rotate(0 110 0)"><path d="M220 0 L206.41 6.34 L206.41 -6.34 L220 0" stroke="none" stroke-width="0" fill="#c92a2a" fill-rule="evenodd"></path><path d="M220 0 C214.71 2.47, 209.42 4.93, 206.41 6.34 M220 0 C215.64 2.03, 211.28 4.06, 206.41 6.34 M206.41 6.34 C206.41 1.34, 206.41 -3.67, 206.41 -6.34 M206.41 6.34 C206.41 1.45, 206.41 -3.44, 206.41 -6.34 M206.41 -6.34 C211.18 -4.11, 215.96 -1.88, 220 0 M206.41 -6.34 C209.72 -4.79, 213.04 -3.25, 220 0 M220 0 C220 0, 220 0, 220 0 M220 0 C220 0, 220 0, 220 0" stroke="#c92a2a" stroke-width="4" fill="none"></path></g></g><mask></mask><g stroke-linecap="round"><g transform="translate(570 290) rotate(0 110.73708050787155 99.289134913293)"><path d="M0 0 C77.43 69.43, 154.86 138.85, 221.47 198.58 M0 0 C79.99 71.72, 159.98 143.44, 221.47 198.58" stroke="#000000" stroke-width="1" fill="none"></path></g><g transform="translate(570 290) rotate(0 110.73708050787155 99.289134913293)"><path d="M221.47 198.58 L207.12 194.22 L215.58 184.78 L221.47 198.58" stroke="none" stroke-width="0" fill="#000000" fill-rule="evenodd"></path><path d="M221.47 198.58 C216.46 197.06, 211.44 195.53, 207.12 194.22 M221.47 198.58 C216.29 197.01, 211.11 195.43, 207.12 194.22 M207.12 194.22 C209.37 191.71, 211.62 189.2, 215.58 184.78 M207.12 194.22 C210.16 190.83, 213.21 187.43, 215.58 184.78 M215.58 184.78 C217.56 189.41, 219.53 194.03, 221.47 198.58 M215.58 184.78 C217.71 189.77, 219.84 194.75, 221.47 198.58 M221.47 198.58 C221.47 198.58, 221.47 198.58, 221.47 198.58 M221.47 198.58 C221.47 198.58, 221.47 198.58, 221.47 198.58" stroke="#000000" stroke-width="1" fill="none"></path></g></g><mask></mask><g stroke-linecap="round"><g transform="translate(830 490) rotate(0 110 -100)"><path d="M0 0 C87.58 -79.61, 175.15 -159.23, 220 -200 M0 0 C70.96 -64.51, 141.92 -129.02, 220 -200" stroke="#c92a2a" stroke-width="4" fill="none"></path></g><g transform="translate(830 490) rotate(0 110 -100)"><path d="M220 -200 L214.21 -186.16 L205.68 -195.55 L220 -200" stroke="none" stroke-width="0" fill="#c92a2a" fill-rule="evenodd"></path><path d="M220 -200 C217.69 -194.49, 215.39 -188.99, 214.21 -186.16 M220 -200 C218.13 -195.54, 216.26 -191.08, 214.21 -186.16 M214.21 -186.16 C212.43 -188.11, 210.66 -190.06, 205.68 -195.55 M214.21 -186.16 C211.05 -189.64, 207.89 -193.11, 205.68 -195.55 M205.68 -195.55 C209.81 -196.83, 213.94 -198.12, 220 -200 M205.68 -195.55 C210.9 -197.17, 216.13 -198.8, 220 -200 M220 -200 C220 -200, 220 -200, 220 -200 M220 -200 C220 -200, 220 -200, 220 -200" stroke="#c92a2a" stroke-width="4" fill="none"></path></g></g><mask></mask><g stroke-linecap="round" transform="translate(10 250) rotate(0 20 20)"><path d="M40 20 C40 21.16, 39.9 22.33, 39.7 23.47 C39.5 24.61, 39.19 25.75, 38.79 26.84 C38.4 27.93, 37.9 29, 37.32 30 C36.74 31, 36.07 31.97, 35.32 32.86 C34.58 33.74, 33.74 34.58, 32.86 35.32 C31.97 36.07, 31 36.74, 30 37.32 C29 37.9, 27.93 38.4, 26.84 38.79 C25.75 39.19, 24.61 39.5, 23.47 39.7 C22.33 39.9, 21.16 40, 20 40 C18.84 40, 17.67 39.9, 16.53 39.7 C15.39 39.5, 14.25 39.19, 13.16 38.79 C12.07 38.4, 11 37.9, 10 37.32 C9 36.74, 8.03 36.07, 7.14 35.32 C6.26 34.58, 5.42 33.74, 4.68 32.86 C3.93 31.97, 3.26 31, 2.68 30 C2.1 29, 1.6 27.93, 1.21 26.84 C0.81 25.75, 0.5 24.61, 0.3 23.47 C0.1 22.33, 0 21.16, 0 20 C0 18.84, 0.1 17.67, 0.3 16.53 C0.5 15.39, 0.81 14.25, 1.21 13.16 C1.6 12.07, 2.1 11, 2.68 10 C3.26 9, 3.93 8.03, 4.68 7.14 C5.42 6.26, 6.26 5.42, 7.14 4.68 C8.03 3.93, 9 3.26, 10 2.68 C11 2.1, 12.07 1.6, 13.16 1.21 C14.25 0.81, 15.39 0.5, 16.53 0.3 C17.67 0.1, 18.84 0, 20 0 C21.16 0, 22.33 0.1, 23.47 0.3 C24.61 0.5, 25.75 0.81, 26.84 1.21 C27.93 1.6, 29 2.1, 30 2.68 C31 3.26, 31.97 3.93, 32.86 4.68 C33.74 5.42, 34.58 6.26, 35.32 7.14 C36.07 8.03, 36.74 9, 37.32 10 C37.9 11, 38.4 12.07, 38.79 13.16 C39.19 14.25, 39.5 15.39, 39.7 16.53 C39.9 17.67, 39.95 19.42, 40 20 C40.05 20.58, 40.05 19.42, 40 20" stroke="#000000" stroke-width="1" fill="none"></path></g><g transform="translate(25 260) rotate(0 5 10)"><text x="5" y="16" font-family="Cascadia, Segoe UI Emoji" font-size="16px" fill="#000000" text-anchor="middle" style="white-space: pre;" direction="ltr">s</text></g><g stroke-linecap="round" transform="translate(270 10) rotate(0 20 20)"><path d="M40 20 C40 21.16, 39.9 22.33, 39.7 23.47 C39.5 24.61, 39.19 25.75, 38.79 26.84 C38.4 27.93, 37.9 29, 37.32 30 C36.74 31, 36.07 31.97, 35.32 32.86 C34.58 33.74, 33.74 34.58, 32.86 35.32 C31.97 36.07, 31 36.74, 30 37.32 C29 37.9, 27.93 38.4, 26.84 38.79 C25.75 39.19, 24.61 39.5, 23.47 39.7 C22.33 39.9, 21.16 40, 20 40 C18.84 40, 17.67 39.9, 16.53 39.7 C15.39 39.5, 14.25 39.19, 13.16 38.79 C12.07 38.4, 11 37.9, 10 37.32 C9 36.74, 8.03 36.07, 7.14 35.32 C6.26 34.58, 5.42 33.74, 4.68 32.86 C3.93 31.97, 3.26 31, 2.68 30 C2.1 29, 1.6 27.93, 1.21 26.84 C0.81 25.75, 0.5 24.61, 0.3 23.47 C0.1 22.33, 0 21.16, 0 20 C0 18.84, 0.1 17.67, 0.3 16.53 C0.5 15.39, 0.81 14.25, 1.21 13.16 C1.6 12.07, 2.1 11, 2.68 10 C3.26 9, 3.93 8.03, 4.68 7.14 C5.42 6.26, 6.26 5.42, 7.14 4.68 C8.03 3.93, 9 3.26, 10 2.68 C11 2.1, 12.07 1.6, 13.16 1.21 C14.25 0.81, 15.39 0.5, 16.53 0.3 C17.67 0.1, 18.84 0, 20 0 C21.16 0, 22.33 0.1, 23.47 0.3 C24.61 0.5, 25.75 0.81, 26.84 1.21 C27.93 1.6, 29 2.1, 30 2.68 C31 3.26, 31.97 3.93, 32.86 4.68 C33.74 5.42, 34.58 6.26, 35.32 7.14 C36.07 8.03, 36.74 9, 37.32 10 C37.9 11, 38.4 12.07, 38.79 13.16 C39.19 14.25, 39.5 15.39, 39.7 16.53 C39.9 17.67, 39.95 19.42, 40 20 C40.05 20.58, 40.05 19.42, 40 20" stroke="#000000" stroke-width="1" fill="none"></path></g><g stroke-linecap="round" transform="translate(270 250) rotate(0 20 20)"><path d="M40 20 C40 21.16, 39.9 22.33, 39.7 23.47 C39.5 24.61, 39.19 25.75, 38.79 26.84 C38.4 27.93, 37.9 29, 37.32 30 C36.74 31, 36.07 31.97, 35.32 32.86 C34.58 33.74, 33.74 34.58, 32.86 35.32 C31.97 36.07, 31 36.74, 30 37.32 C29 37.9, 27.93 38.4, 26.84 38.79 C25.75 39.19, 24.61 39.5, 23.47 39.7 C22.33 39.9, 21.16 40, 20 40 C18.84 40, 17.67 39.9, 16.53 39.7 C15.39 39.5, 14.25 39.19, 13.16 38.79 C12.07 38.4, 11 37.9, 10 37.32 C9 36.74, 8.03 36.07, 7.14 35.32 C6.26 34.58, 5.42 33.74, 4.68 32.86 C3.93 31.97, 3.26 31, 2.68 30 C2.1 29, 1.6 27.93, 1.21 26.84 C0.81 25.75, 0.5 24.61, 0.3 23.47 C0.1 22.33, 0 21.16, 0 20 C0 18.84, 0.1 17.67, 0.3 16.53 C0.5 15.39, 0.81 14.25, 1.21 13.16 C1.6 12.07, 2.1 11, 2.68 10 C3.26 9, 3.93 8.03, 4.68 7.14 C5.42 6.26, 6.26 5.42, 7.14 4.68 C8.03 3.93, 9 3.26, 10 2.68 C11 2.1, 12.07 1.6, 13.16 1.21 C14.25 0.81, 15.39 0.5, 16.53 0.3 C17.67 0.1, 18.84 0, 20 0 C21.16 0, 22.33 0.1, 23.47 0.3 C24.61 0.5, 25.75 0.81, 26.84 1.21 C27.93 1.6, 29 2.1, 30 2.68 C31 3.26, 31.97 3.93, 32.86 4.68 C33.74 5.42, 34.58 6.26, 35.32 7.14 C36.07 8.03, 36.74 9, 37.32 10 C37.9 11, 38.4 12.07, 38.79 13.16 C39.19 14.25, 39.5 15.39, 39.7 16.53 C39.9 17.67, 39.95 19.42, 40 20 C40.05 20.58, 40.05 19.42, 40 20" stroke="#000000" stroke-width="1" fill="none"></path></g><g stroke-linecap="round" transform="translate(270 490) rotate(0 20 20)"><path d="M40 20 C40 21.16, 39.9 22.33, 39.7 23.47 C39.5 24.61, 39.19 25.75, 38.79 26.84 C38.4 27.93, 37.9 29, 37.32 30 C36.74 31, 36.07 31.97, 35.32 32.86 C34.58 33.74, 33.74 34.58, 32.86 35.32 C31.97 36.07, 31 36.74, 30 37.32 C29 37.9, 27.93 38.4, 26.84 38.79 C25.75 39.19, 24.61 39.5, 23.47 39.7 C22.33 39.9, 21.16 40, 20 40 C18.84 40, 17.67 39.9, 16.53 39.7 C15.39 39.5, 14.25 39.19, 13.16 38.79 C12.07 38.4, 11 37.9, 10 37.32 C9 36.74, 8.03 36.07, 7.14 35.32 C6.26 34.58, 5.42 33.74, 4.68 32.86 C3.93 31.97, 3.26 31, 2.68 30 C2.1 29, 1.6 27.93, 1.21 26.84 C0.81 25.75, 0.5 24.61, 0.3 23.47 C0.1 22.33, 0 21.16, 0 20 C0 18.84, 0.1 17.67, 0.3 16.53 C0.5 15.39, 0.81 14.25, 1.21 13.16 C1.6 12.07, 2.1 11, 2.68 10 C3.26 9, 3.93 8.03, 4.68 7.14 C5.42 6.26, 6.26 5.42, 7.14 4.68 C8.03 3.93, 9 3.26, 10 2.68 C11 2.1, 12.07 1.6, 13.16 1.21 C14.25 0.81, 15.39 0.5, 16.53 0.3 C17.67 0.1, 18.84 0, 20 0 C21.16 0, 22.33 0.1, 23.47 0.3 C24.61 0.5, 25.75 0.81, 26.84 1.21 C27.93 1.6, 29 2.1, 30 2.68 C31 3.26, 31.97 3.93, 32.86 4.68 C33.74 5.42, 34.58 6.26, 35.32 7.14 C36.07 8.03, 36.74 9, 37.32 10 C37.9 11, 38.4 12.07, 38.79 13.16 C39.19 14.25, 39.5 15.39, 39.7 16.53 C39.9 17.67, 39.95 19.42, 40 20 C40.05 20.58, 40.05 19.42, 40 20" stroke="#000000" stroke-width="1" fill="none"></path></g><g stroke-linecap="round"><g transform="translate(50 248.578269826586) rotate(0 110.73708050787155 -99.289134913293)"><path d="M0 0 C49.11 -44.03, 98.21 -88.06, 221.47 -198.58 M0 0 C74.95 -67.21, 149.91 -134.41, 221.47 -198.58" stroke="#5c940d" stroke-width="4" fill="none"></path></g><g transform="translate(50 248.578269826586) rotate(0 110.73708050787155 -99.289134913293)"><path d="M221.47 -198.58 L215.58 -184.78 L207.12 -194.22 L221.47 -198.58" stroke="none" stroke-width="0" fill="#5c940d" fill-rule="evenodd"></path><path d="M221.47 -198.58 C220.17 -195.52, 218.86 -192.46, 215.58 -184.78 M221.47 -198.58 C219.48 -193.91, 217.49 -189.24, 215.58 -184.78 M215.58 -184.78 C213.17 -187.48, 210.75 -190.18, 207.12 -194.22 M215.58 -184.78 C212.29 -188.46, 208.99 -192.14, 207.12 -194.22 M207.12 -194.22 C212.22 -195.77, 217.31 -197.32, 221.47 -198.58 M207.12 -194.22 C211.95 -195.69, 216.78 -197.15, 221.47 -198.58 M221.47 -198.58 C221.47 -198.58, 221.47 -198.58, 221.47 -198.58 M221.47 -198.58 C221.47 -198.58, 221.47 -198.58, 221.47 -198.58" stroke="#5c940d" stroke-width="4" fill="none"></path></g></g><mask></mask><g stroke-linecap="round"><g transform="translate(50 270) rotate(0 109 0)"><path d="M0 0 C82.91 0, 165.83 0, 218 0 M0 0 C59.88 0, 119.76 0, 218 0" stroke="#2b8a3e" stroke-width="4" fill="none"></path></g><g transform="translate(50 270) rotate(0 109 0)"><path d="M218 0 L204.41 6.34 L204.41 -6.34 L218 0" stroke="none" stroke-width="0" fill="#2b8a3e" fill-rule="evenodd"></path><path d="M218 0 C212.83 2.41, 207.66 4.82, 204.41 6.34 M218 0 C214.27 1.74, 210.53 3.48, 204.41 6.34 M204.41 6.34 C204.41 1.92, 204.41 -2.5, 204.41 -6.34 M204.41 6.34 C204.41 1.91, 204.41 -2.52, 204.41 -6.34 M204.41 -6.34 C209.79 -3.83, 215.17 -1.32, 218 0 M204.41 -6.34 C208.91 -4.24, 213.41 -2.14, 218 0 M218 0 C218 0, 218 0, 218 0 M218 0 C218 0, 218 0, 218 0" stroke="#2b8a3e" stroke-width="4" fill="none"></path></g></g><mask></mask><g stroke-linecap="round"><g transform="translate(310 50) rotate(0 110 100)"><path d="M0 0 C81.07 73.7, 162.14 147.4, 220 200 M0 0 C86.19 78.35, 172.38 156.7, 220 200" stroke="#000000" stroke-width="1" fill="none"></path></g><g transform="translate(310 50) rotate(0 110 100)"><path d="M220 200 L205.68 195.55 L214.21 186.16 L220 200" stroke="none" stroke-width="0" fill="#000000" fill-rule="evenodd"></path><path d="M220 200 C214.72 198.36, 209.44 196.72, 205.68 195.55 M220 200 C214.39 198.26, 208.78 196.51, 205.68 195.55 M205.68 195.55 C207.44 193.61, 209.2 191.67, 214.21 186.16 M205.68 195.55 C208.56 192.37, 211.45 189.19, 214.21 186.16 M214.21 186.16 C216.42 191.46, 218.64 196.76, 220 200 M214.21 186.16 C215.43 189.1, 216.66 192.04, 220 200 M220 200 C220 200, 220 200, 220 200 M220 200 C220 200, 220 200, 220 200" stroke="#000000" stroke-width="1" fill="none"></path></g></g><mask></mask><g stroke-linecap="round"><g transform="translate(310 270) rotate(0 110 0)"><path d="M0 0 C58.82 0, 117.65 0, 220 0 M0 0 C79.01 0, 158.02 0, 220 0" stroke="#000000" stroke-width="1" fill="none"></path></g><g transform="translate(310 270) rotate(0 110 0)"><path d="M220 0 L206.41 6.34 L206.41 -6.34 L220 0" stroke="none" stroke-width="0" fill="#000000" fill-rule="evenodd"></path><path d="M220 0 C216.37 1.7, 212.73 3.39, 206.41 6.34 M220 0 C215.12 2.28, 210.24 4.55, 206.41 6.34 M206.41 6.34 C206.41 3.17, 206.41 0.01, 206.41 -6.34 M206.41 6.34 C206.41 1.57, 206.41 -3.2, 206.41 -6.34 M206.41 -6.34 C211.59 -3.92, 216.78 -1.5, 220 0 M206.41 -6.34 C210.97 -4.21, 215.53 -2.08, 220 0 M220 0 C220 0, 220 0, 220 0 M220 0 C220 0, 220 0, 220 0" stroke="#000000" stroke-width="1" fill="none"></path></g></g><mask></mask><g stroke-linecap="round"><g transform="translate(49.262919492128276 290.71086508670703) rotate(0 110.73708050787155 99.289134913293)"><path d="M0 0 C45.76 41.03, 91.52 82.06, 221.47 198.58 M0 0 C51.75 46.4, 103.51 92.81, 221.47 198.58" stroke="#2b8a3e" stroke-width="4" fill="none"></path></g><g transform="translate(49.262919492128276 290.71086508670703) rotate(0 110.73708050787155 99.289134913293)"><path d="M221.47 198.58 L207.12 194.22 L215.58 184.78 L221.47 198.58" stroke="none" stroke-width="0" fill="#2b8a3e" fill-rule="evenodd"></path><path d="M221.47 198.58 C218.51 197.68, 215.54 196.78, 207.12 194.22 M221.47 198.58 C218.12 197.56, 214.77 196.54, 207.12 194.22 M207.12 194.22 C209.59 191.47, 212.06 188.71, 215.58 184.78 M207.12 194.22 C208.91 192.22, 210.71 190.22, 215.58 184.78 M215.58 184.78 C217.72 189.79, 219.86 194.79, 221.47 198.58 M215.58 184.78 C217.39 189.01, 219.2 193.24, 221.47 198.58 M221.47 198.58 C221.47 198.58, 221.47 198.58, 221.47 198.58 M221.47 198.58 C221.47 198.58, 221.47 198.58, 221.47 198.58" stroke="#2b8a3e" stroke-width="4" fill="none"></path></g></g><mask></mask><g stroke-linecap="round"><g transform="translate(310 490) rotate(0 110 -100)"><path d="M0 0 C79.22 -72.02, 158.44 -144.04, 220 -200 M0 0 C73.42 -66.75, 146.85 -133.5, 220 -200" stroke="#000000" stroke-width="1" fill="none"></path></g><g transform="translate(310 490) rotate(0 110 -100)"><path d="M220 -200 L214.21 -186.16 L205.68 -195.55 L220 -200" stroke="none" stroke-width="0" fill="#000000" fill-rule="evenodd"></path><path d="M220 -200 C217.91 -195.02, 215.83 -190.04, 214.21 -186.16 M220 -200 C218.07 -195.38, 216.13 -190.76, 214.21 -186.16 M214.21 -186.16 C211.22 -189.44, 208.24 -192.72, 205.68 -195.55 M214.21 -186.16 C212.5 -188.04, 210.79 -189.92, 205.68 -195.55 M205.68 -195.55 C209.11 -196.61, 212.55 -197.68, 220 -200 M205.68 -195.55 C209.47 -196.73, 213.26 -197.9, 220 -200 M220 -200 C220 -200, 220 -200, 220 -200 M220 -200 C220 -200, 220 -200, 220 -200" stroke="#000000" stroke-width="1" fill="none"></path></g></g><mask></mask><g stroke-linecap="round" transform="translate(530 490) rotate(0 20 20)"><path d="M40 20 C40 21.16, 39.9 22.33, 39.7 23.47 C39.5 24.61, 39.19 25.75, 38.79 26.84 C38.4 27.93, 37.9 29, 37.32 30 C36.74 31, 36.07 31.97, 35.32 32.86 C34.58 33.74, 33.74 34.58, 32.86 35.32 C31.97 36.07, 31 36.74, 30 37.32 C29 37.9, 27.93 38.4, 26.84 38.79 C25.75 39.19, 24.61 39.5, 23.47 39.7 C22.33 39.9, 21.16 40, 20 40 C18.84 40, 17.67 39.9, 16.53 39.7 C15.39 39.5, 14.25 39.19, 13.16 38.79 C12.07 38.4, 11 37.9, 10 37.32 C9 36.74, 8.03 36.07, 7.14 35.32 C6.26 34.58, 5.42 33.74, 4.68 32.86 C3.93 31.97, 3.26 31, 2.68 30 C2.1 29, 1.6 27.93, 1.21 26.84 C0.81 25.75, 0.5 24.61, 0.3 23.47 C0.1 22.33, 0 21.16, 0 20 C0 18.84, 0.1 17.67, 0.3 16.53 C0.5 15.39, 0.81 14.25, 1.21 13.16 C1.6 12.07, 2.1 11, 2.68 10 C3.26 9, 3.93 8.03, 4.68 7.14 C5.42 6.26, 6.26 5.42, 7.14 4.68 C8.03 3.93, 9 3.26, 10 2.68 C11 2.1, 12.07 1.6, 13.16 1.21 C14.25 0.81, 15.39 0.5, 16.53 0.3 C17.67 0.1, 18.84 0, 20 0 C21.16 0, 22.33 0.1, 23.47 0.3 C24.61 0.5, 25.75 0.81, 26.84 1.21 C27.93 1.6, 29 2.1, 30 2.68 C31 3.26, 31.97 3.93, 32.86 4.68 C33.74 5.42, 34.58 6.26, 35.32 7.14 C36.07 8.03, 36.74 9, 37.32 10 C37.9 11, 38.4 12.07, 38.79 13.16 C39.19 14.25, 39.5 15.39, 39.7 16.53 C39.9 17.67, 39.95 19.42, 40 20 C40.05 20.58, 40.05 19.42, 40 20" stroke="#000000" stroke-width="1" fill="none"></path></g><g stroke-linecap="round" transform="translate(530 390) rotate(0 20 20)"><path d="M40 20 C40 21.16, 39.9 22.33, 39.7 23.47 C39.5 24.61, 39.19 25.75, 38.79 26.84 C38.4 27.93, 37.9 29, 37.32 30 C36.74 31, 36.07 31.97, 35.32 32.86 C34.58 33.74, 33.74 34.58, 32.86 35.32 C31.97 36.07, 31 36.74, 30 37.32 C29 37.9, 27.93 38.4, 26.84 38.79 C25.75 39.19, 24.61 39.5, 23.47 39.7 C22.33 39.9, 21.16 40, 20 40 C18.84 40, 17.67 39.9, 16.53 39.7 C15.39 39.5, 14.25 39.19, 13.16 38.79 C12.07 38.4, 11 37.9, 10 37.32 C9 36.74, 8.03 36.07, 7.14 35.32 C6.26 34.58, 5.42 33.74, 4.68 32.86 C3.93 31.97, 3.26 31, 2.68 30 C2.1 29, 1.6 27.93, 1.21 26.84 C0.81 25.75, 0.5 24.61, 0.3 23.47 C0.1 22.33, 0 21.16, 0 20 C0 18.84, 0.1 17.67, 0.3 16.53 C0.5 15.39, 0.81 14.25, 1.21 13.16 C1.6 12.07, 2.1 11, 2.68 10 C3.26 9, 3.93 8.03, 4.68 7.14 C5.42 6.26, 6.26 5.42, 7.14 4.68 C8.03 3.93, 9 3.26, 10 2.68 C11 2.1, 12.07 1.6, 13.16 1.21 C14.25 0.81, 15.39 0.5, 16.53 0.3 C17.67 0.1, 18.84 0, 20 0 C21.16 0, 22.33 0.1, 23.47 0.3 C24.61 0.5, 25.75 0.81, 26.84 1.21 C27.93 1.6, 29 2.1, 30 2.68 C31 3.26, 31.97 3.93, 32.86 4.68 C33.74 5.42, 34.58 6.26, 35.32 7.14 C36.07 8.03, 36.74 9, 37.32 10 C37.9 11, 38.4 12.07, 38.79 13.16 C39.19 14.25, 39.5 15.39, 39.7 16.53 C39.9 17.67, 39.95 19.42, 40 20 C40.05 20.58, 40.05 19.42, 40 20" stroke="#000000" stroke-width="1" fill="none"></path></g><g stroke-linecap="round" transform="translate(530 110) rotate(0 20 20)"><path d="M40 20 C40 21.16, 39.9 22.33, 39.7 23.47 C39.5 24.61, 39.19 25.75, 38.79 26.84 C38.4 27.93, 37.9 29, 37.32 30 C36.74 31, 36.07 31.97, 35.32 32.86 C34.58 33.74, 33.74 34.58, 32.86 35.32 C31.97 36.07, 31 36.74, 30 37.32 C29 37.9, 27.93 38.4, 26.84 38.79 C25.75 39.19, 24.61 39.5, 23.47 39.7 C22.33 39.9, 21.16 40, 20 40 C18.84 40, 17.67 39.9, 16.53 39.7 C15.39 39.5, 14.25 39.19, 13.16 38.79 C12.07 38.4, 11 37.9, 10 37.32 C9 36.74, 8.03 36.07, 7.14 35.32 C6.26 34.58, 5.42 33.74, 4.68 32.86 C3.93 31.97, 3.26 31, 2.68 30 C2.1 29, 1.6 27.93, 1.21 26.84 C0.81 25.75, 0.5 24.61, 0.3 23.47 C0.1 22.33, 0 21.16, 0 20 C0 18.84, 0.1 17.67, 0.3 16.53 C0.5 15.39, 0.81 14.25, 1.21 13.16 C1.6 12.07, 2.1 11, 2.68 10 C3.26 9, 3.93 8.03, 4.68 7.14 C5.42 6.26, 6.26 5.42, 7.14 4.68 C8.03 3.93, 9 3.26, 10 2.68 C11 2.1, 12.07 1.6, 13.16 1.21 C14.25 0.81, 15.39 0.5, 16.53 0.3 C17.67 0.1, 18.84 0, 20 0 C21.16 0, 22.33 0.1, 23.47 0.3 C24.61 0.5, 25.75 0.81, 26.84 1.21 C27.93 1.6, 29 2.1, 30 2.68 C31 3.26, 31.97 3.93, 32.86 4.68 C33.74 5.42, 34.58 6.26, 35.32 7.14 C36.07 8.03, 36.74 9, 37.32 10 C37.9 11, 38.4 12.07, 38.79 13.16 C39.19 14.25, 39.5 15.39, 39.7 16.53 C39.9 17.67, 39.95 19.42, 40 20 C40.05 20.58, 40.05 19.42, 40 20" stroke="#000000" stroke-width="1" fill="none"></path></g><g stroke-linecap="round" transform="translate(530 10) rotate(0 20 20)"><path d="M40 20 C40 21.16, 39.9 22.33, 39.7 23.47 C39.5 24.61, 39.19 25.75, 38.79 26.84 C38.4 27.93, 37.9 29, 37.32 30 C36.74 31, 36.07 31.97, 35.32 32.86 C34.58 33.74, 33.74 34.58, 32.86 35.32 C31.97 36.07, 31 36.74, 30 37.32 C29 37.9, 27.93 38.4, 26.84 38.79 C25.75 39.19, 24.61 39.5, 23.47 39.7 C22.33 39.9, 21.16 40, 20 40 C18.84 40, 17.67 39.9, 16.53 39.7 C15.39 39.5, 14.25 39.19, 13.16 38.79 C12.07 38.4, 11 37.9, 10 37.32 C9 36.74, 8.03 36.07, 7.14 35.32 C6.26 34.58, 5.42 33.74, 4.68 32.86 C3.93 31.97, 3.26 31, 2.68 30 C2.1 29, 1.6 27.93, 1.21 26.84 C0.81 25.75, 0.5 24.61, 0.3 23.47 C0.1 22.33, 0 21.16, 0 20 C0 18.84, 0.1 17.67, 0.3 16.53 C0.5 15.39, 0.81 14.25, 1.21 13.16 C1.6 12.07, 2.1 11, 2.68 10 C3.26 9, 3.93 8.03, 4.68 7.14 C5.42 6.26, 6.26 5.42, 7.14 4.68 C8.03 3.93, 9 3.26, 10 2.68 C11 2.1, 12.07 1.6, 13.16 1.21 C14.25 0.81, 15.39 0.5, 16.53 0.3 C17.67 0.1, 18.84 0, 20 0 C21.16 0, 22.33 0.1, 23.47 0.3 C24.61 0.5, 25.75 0.81, 26.84 1.21 C27.93 1.6, 29 2.1, 30 2.68 C31 3.26, 31.97 3.93, 32.86 4.68 C33.74 5.42, 34.58 6.26, 35.32 7.14 C36.07 8.03, 36.74 9, 37.32 10 C37.9 11, 38.4 12.07, 38.79 13.16 C39.19 14.25, 39.5 15.39, 39.7 16.53 C39.9 17.67, 39.95 19.42, 40 20 C40.05 20.58, 40.05 19.42, 40 20" stroke="#000000" stroke-width="1" fill="none"></path></g><g stroke-linecap="round"><g transform="translate(570 130) rotate(0 110 60)"><path d="M0 0 C84.56 46.12, 169.12 92.25, 220 120" stroke="#000000" stroke-width="1.5" fill="none" stroke-dasharray="1.5 7"></path></g><g transform="translate(570 130) rotate(0 110 60)"><path d="M220 120 L205.03 119.06 L211.1 107.92 L220 120" stroke="none" stroke-width="0" fill="#000000" fill-rule="evenodd"></path><path d="M220 120 C214.25 119.64, 208.49 119.27, 205.03 119.06 M205.03 119.06 C207.31 114.88, 209.59 110.7, 211.1 107.92 M211.1 107.92 C213.94 111.78, 216.79 115.64, 220 120 M220 120 C220 120, 220 120, 220 120" stroke="#000000" stroke-width="1.5" fill="none"></path></g></g><mask></mask><g stroke-linecap="round"><g transform="translate(570 410) rotate(0 110 -60)"><path d="M0 0 C62.83 -34.27, 125.66 -68.54, 220 -120" stroke="#000000" stroke-width="1.5" fill="none" stroke-dasharray="1.5 7"></path></g><g transform="translate(570 410) rotate(0 110 -60)"><path d="M220 -120 L211.1 -107.92 L205.03 -119.06 L220 -120" stroke="none" stroke-width="0" fill="#000000" fill-rule="evenodd"></path><path d="M220 -120 C217.46 -116.55, 214.92 -113.1, 211.1 -107.92 M211.1 -107.92 C209.73 -110.43, 208.37 -112.94, 205.03 -119.06 M205.03 -119.06 C208.34 -119.26, 211.65 -119.47, 220 -120 M220 -120 C220 -120, 220 -120, 220 -120" stroke="#000000" stroke-width="1.5" fill="none"></path></g></g><mask></mask><g stroke-linecap="round"><g transform="translate(570 30) rotate(0 110 0)"><path d="M0 0 C44.95 0, 89.9 0, 220 0" stroke="#000000" stroke-width="1.5" fill="none" stroke-dasharray="1.5 7"></path></g><g transform="translate(570 30) rotate(0 110 0)"><path d="M220 0 L206.41 6.34 L206.41 -6.34 L220 0" stroke="none" stroke-width="0" fill="#000000" fill-rule="evenodd"></path><path d="M220 0 C217.22 1.3, 214.44 2.59, 206.41 6.34 M206.41 6.34 C206.41 3.74, 206.41 1.15, 206.41 -6.34 M206.41 -6.34 C210.38 -4.48, 214.36 -2.63, 220 0 M220 0 C220 0, 220 0, 220 0" stroke="#000000" stroke-width="1.5" fill="none"></path></g></g><mask></mask><g stroke-linecap="round"><g transform="translate(570 130) rotate(0 110 -40)"><path d="M0 0 C67.56 -24.57, 135.12 -49.14, 220 -80" stroke="#000000" stroke-width="1.5" fill="none" stroke-dasharray="1.5 7"></path></g><g transform="translate(570 130) rotate(0 110 -40)"><path d="M220 -80 L209.39 -69.4 L205.06 -81.31 L220 -80" stroke="none" stroke-width="0" fill="#000000" fill-rule="evenodd"></path><path d="M220 -80 C216.74 -76.74, 213.48 -73.49, 209.39 -69.4 M209.39 -69.4 C208.12 -72.88, 206.86 -76.36, 205.06 -81.31 M205.06 -81.31 C210.16 -80.86, 215.26 -80.42, 220 -80 M220 -80 C220 -80, 220 -80, 220 -80" stroke="#000000" stroke-width="1.5" fill="none"></path></g></g><mask></mask><g stroke-linecap="round"><g transform="translate(570 410) rotate(0 110 50)"><path d="M0 0 C81.49 37.04, 162.98 74.08, 220 100" stroke="#000000" stroke-width="1.5" fill="none" stroke-dasharray="1.5 7"></path></g><g transform="translate(570 410) rotate(0 110 50)"><path d="M220 100 L205 100.15 L210.25 88.6 L220 100" stroke="none" stroke-width="0" fill="#000000" fill-rule="evenodd"></path><path d="M220 100 C214.44 100.05, 208.89 100.11, 205 100.15 M205 100.15 C206.65 96.51, 208.3 92.88, 210.25 88.6 M210.25 88.6 C212.36 91.07, 214.47 93.54, 220 100 M220 100 C220 100, 220 100, 220 100" stroke="#000000" stroke-width="1.5" fill="none"></path></g></g><mask></mask><g stroke-linecap="round"><g transform="translate(570 510) rotate(0 110 0)"><path d="M0 0 C84.24 0, 168.49 0, 220 0" stroke="#000000" stroke-width="1.5" fill="none" stroke-dasharray="1.5 7"></path></g><g transform="translate(570 510) rotate(0 110 0)"><path d="M220 0 L206.41 6.34 L206.41 -6.34 L220 0" stroke="none" stroke-width="0" fill="#000000" fill-rule="evenodd"></path><path d="M220 0 C214.79 2.43, 209.59 4.85, 206.41 6.34 M206.41 6.34 C206.41 2.64, 206.41 -1.05, 206.41 -6.34 M206.41 -6.34 C209.73 -4.79, 213.05 -3.24, 220 0 M220 0 C220 0, 220 0, 220 0" stroke="#000000" stroke-width="1.5" fill="none"></path></g></g><mask></mask><g stroke-linecap="round"><g transform="translate(310 30) rotate(0 110 0)"><path d="M0 0 C80.46 0, 160.91 0, 220 0" stroke="#000000" stroke-width="1.5" fill="none" stroke-dasharray="1.5 7"></path></g><g transform="translate(310 30) rotate(0 110 0)"><path d="M220 0 L206.41 6.34 L206.41 -6.34 L220 0" stroke="none" stroke-width="0" fill="#000000" fill-rule="evenodd"></path><path d="M220 0 C215.03 2.32, 210.06 4.64, 206.41 6.34 M206.41 6.34 C206.41 1.56, 206.41 -3.22, 206.41 -6.34 M206.41 -6.34 C210.34 -4.5, 214.28 -2.67, 220 0 M220 0 C220 0, 220 0, 220 0" stroke="#000000" stroke-width="1.5" fill="none"></path></g></g><mask></mask><g stroke-linecap="round"><g transform="translate(550 310) rotate(0 0 30)"><path d="M0 0 C0 19.39, 0 38.79, 0 60" stroke="#000000" stroke-width="1.5" fill="none" stroke-dasharray="1.5 7"></path></g></g><mask></mask><g stroke-linecap="round"><g transform="translate(550 170) rotate(0 0 30)"><path d="M0 0 C0 22.81, 0 45.62, 0 60" stroke="#000000" stroke-width="1.5" fill="none" stroke-dasharray="1.5 7"></path></g></g><mask></mask><g stroke-linecap="round"><g transform="translate(550 70) rotate(0 0 10)"><path d="M0 0 C0 5.04, 0 10.09, 0 20" stroke="#000000" stroke-width="1.5" fill="none" stroke-dasharray="1.5 7"></path></g></g><mask></mask><g stroke-linecap="round"><g transform="translate(550 130) rotate(0 0 10)"><path d="M0 0 C0 6.79, 0 13.58, 0 20" stroke="#000000" stroke-width="1.5" fill="none" stroke-dasharray="1.5 7"></path></g></g><mask></mask><g stroke-linecap="round"><g transform="translate(550 450) rotate(0 0 10)"><path d="M0 0 C0 5.24, 0 10.47, 0 20" stroke="#000000" stroke-width="1.5" fill="none" stroke-dasharray="1.5 7"></path></g></g><mask></mask><g stroke-linecap="round"><g transform="translate(310 30) rotate(0 110 50)"><path d="M0 0 C46.22 21.01, 92.44 42.02, 220 100" stroke="#000000" stroke-width="1.5" fill="none" stroke-dasharray="1.5 7"></path></g><g transform="translate(310 30) rotate(0 110 50)"><path d="M220 100 L205 100.15 L210.25 88.6 L220 100" stroke="none" stroke-width="0" fill="#000000" fill-rule="evenodd"></path><path d="M220 100 C216.85 100.03, 213.7 100.06, 205 100.15 M205 100.15 C206.94 95.87, 208.88 91.6, 210.25 88.6 M210.25 88.6 C213.4 92.29, 216.56 95.98, 220 100 M220 100 C220 100, 220 100, 220 100" stroke="#000000" stroke-width="1.5" fill="none"></path></g></g><mask></mask><g stroke-linecap="round"><g transform="translate(310 270) rotate(0 110 -70)"><path d="M0 0 C78.96 -50.25, 157.92 -100.5, 220 -140" stroke="#000000" stroke-width="1.5" fill="none" stroke-dasharray="1.5 7"></path></g><g transform="translate(310 270) rotate(0 110 -70)"><path d="M220 -140 L211.93 -127.35 L205.13 -138.05 L220 -140" stroke="none" stroke-width="0" fill="#000000" fill-rule="evenodd"></path><path d="M220 -140 C217.11 -135.46, 214.21 -130.92, 211.93 -127.35 M211.93 -127.35 C210.09 -130.26, 208.24 -133.16, 205.13 -138.05 M205.13 -138.05 C208.93 -138.55, 212.74 -139.05, 220 -140 M220 -140 C220 -140, 220 -140, 220 -140" stroke="#000000" stroke-width="1.5" fill="none"></path></g></g><mask></mask><g stroke-linecap="round"><g transform="translate(310 270) rotate(0 110 70)"><path d="M0 0 C53.85 34.27, 107.71 68.54, 220 140" stroke="#000000" stroke-width="1.5" fill="none" stroke-dasharray="1.5 7"></path></g><g transform="translate(310 270) rotate(0 110 70)"><path d="M220 140 L205.13 138.05 L211.93 127.35 L220 140" stroke="none" stroke-width="0" fill="#000000" fill-rule="evenodd"></path><path d="M220 140 C216.36 139.52, 212.72 139.05, 205.13 138.05 M205.13 138.05 C207.18 134.83, 209.22 131.61, 211.93 127.35 M211.93 127.35 C214.43 131.27, 216.93 135.19, 220 140 M220 140 C220 140, 220 140, 220 140" stroke="#000000" stroke-width="1.5" fill="none"></path></g></g><mask></mask><g stroke-linecap="round"><g transform="translate(310 510) rotate(0 110 0)"><path d="M0 0 C64.22 0, 128.44 0, 220 0" stroke="#000000" stroke-width="1.5" fill="none" stroke-dasharray="1.5 7"></path></g><g transform="translate(310 510) rotate(0 110 0)"><path d="M220 0 L206.41 6.34 L206.41 -6.34 L220 0" stroke="none" stroke-width="0" fill="#000000" fill-rule="evenodd"></path><path d="M220 0 C216.03 1.85, 212.06 3.7, 206.41 6.34 M206.41 6.34 C206.41 1.53, 206.41 -3.27, 206.41 -6.34 M206.41 -6.34 C209.23 -5.02, 212.05 -3.71, 220 0 M220 0 C220 0, 220 0, 220 0" stroke="#000000" stroke-width="1.5" fill="none"></path></g></g><mask></mask><g stroke-linecap="round"><g transform="translate(310 510) rotate(0 110 -50)"><path d="M0 0 C45.66 -20.75, 91.32 -41.51, 220 -100" stroke="#000000" stroke-width="1.5" fill="none" stroke-dasharray="1.5 7"></path></g><g transform="translate(310 510) rotate(0 110 -50)"><path d="M220 -100 L210.25 -88.6 L205 -100.15 L220 -100" stroke="none" stroke-width="0" fill="#000000" fill-rule="evenodd"></path><path d="M220 -100 C217.98 -97.63, 215.95 -95.27, 210.25 -88.6 M210.25 -88.6 C209 -91.34, 207.76 -94.07, 205 -100.15 M205 -100.15 C208.59 -100.11, 212.18 -100.08, 220 -100 M220 -100 C220 -100, 220 -100, 220 -100" stroke="#000000" stroke-width="1.5" fill="none"></path></g></g><mask></mask><g stroke-linecap="round"><g transform="translate(810 110) rotate(0 0 40)"><path d="M0 0 C0 31.34, 0 62.69, 0 80" stroke="#000000" stroke-width="1.5" fill="none" stroke-dasharray="1.5 7"></path></g></g><mask></mask><g stroke-linecap="round"><g transform="translate(810 350) rotate(0 0 40)"><path d="M0 0 C0 16.01, 0 32.02, 0 80" stroke="#000000" stroke-width="1.5" fill="none" stroke-dasharray="1.5 7"></path></g></g><mask></mask><g stroke-linecap="round"><g transform="translate(290 110) rotate(0 0 40)"><path d="M0 0 C0 19.28, 0 38.56, 0 80" stroke="#000000" stroke-width="1.5" fill="none" stroke-dasharray="1.5 7"></path></g></g><mask></mask><g stroke-linecap="round"><g transform="translate(290 350) rotate(0 0 40)"><path d="M0 0 C0 27.51, 0 55.02, 0 80" stroke="#000000" stroke-width="1.5" fill="none" stroke-dasharray="1.5 7"></path></g></g><mask></mask></svg>